<?xml version="1.0" encoding="utf-8"?>
<!-- Generator: Adobe Illustrator 21.0.2, SVG Export Plug-In . SVG Version: 6.00 Build 0)  -->
<svg version="1.1" id="Capa_1" xmlns="http://www.w3.org/2000/svg" xmlns:xlink="http://www.w3.org/1999/xlink" x="0px" y="0px"
	 viewBox="0 0 280.2 199.7" style="enable-background:new 0 0 280.2 199.7;" xml:space="preserve">
<style type="text/css">
	.st0{fill:#70716F;}
</style>
<path class="st0" d="M29.3,83.3c0,2.2,1.1,3.3,2.2,3.3h7.8c1.1,0,2.2-1.1,2.2-3.3V68.8c0-5.5-1.1-16.6-14.4-16.6
	S11.6,63.3,11.6,68.8V131c0,5.5,2.2,16.6,15.5,16.6s14.4-11.1,14.4-16.6v-14.4c0-2.2-1.1-3.3-2.2-3.3h-7.8c-1.1,0-2.2,1.1-2.2,3.3
	v11.7c0,0,0,1.7-0.6,2.8c0,0-0.6,1.1-1.7,1.1s-1.7-1.1-1.7-1.1c-0.6-1.1-0.6-2.8-0.6-2.8v-45V71.6c0,0,0-1.7,0.6-2.8
	c0,0,0.6-1.1,1.7-1.1s1.7,1.1,1.7,1.1c0.6,1.1,0.6,2.8,0.6,2.8V83.3z"/>
<path class="st0" d="M48.1,52.2c-1.1,0-2.2,1.1-2.2,3.3v88.8c0,2.2,1.1,3.3,2.2,3.3h20c1.1,0,2.2-1.1,2.2-3.3v-5.5
	c0-2.2-1.1-3.3-2.2-3.3h-10v-80c0-2.2-1.1-3.3-2.2-3.3H48.1z"/>
<path class="st0" d="M182.4,52.2c-1.1,0-2.2,1.1-2.2,3.3v88.8c0,2.2,1.1,3.3,2.2,3.3h20c1.1,0,2.2-1.1,2.2-3.3v-5.5
	c0-2.2-1.1-3.3-2.2-3.3h-10v-80c0-2.2-1.1-3.3-2.2-3.3H182.4z"/>
<path class="st0" d="M72.5,68.8V131c0,5.5,2.2,16.6,15.5,16.6s14.4-11.1,14.4-16.6V68.8c0-5.5-1.1-16.6-14.4-16.6
	C74.8,52.2,72.5,63.3,72.5,68.8z M85.9,125.4V75.5c0-7.8,1.1-7.8,2.2-7.8s2.2,0,2.2,7.8v49.9c0,6.7-1.1,6.7-2.2,6.7
	S85.9,132.1,85.9,125.4z"/>
<path class="st0" d="M109.2,52.2c-1.1,0-2.2,1.1-2.2,3.3v88.8c0,2.2,1.1,3.3,2.2,3.3h7.8c1,0,2.2-1.1,2.2-3.3c0,0,0-35.1,0-37.7h0.6
	l5,37.7c0,0,0,3.3,3.3,3.3h6.7c4.4,0,3.3-3.3,3.3-3.3c0-0.1,0,0.1,0,0l-6.7-41.6c5.6-3.9,7.2-12.2,7.2-20.5c0-27.2-10.5-30-16.1-30
	C122.5,52.2,109.2,52.2,109.2,52.2z M120.8,67.7c2.2,0,5.5,0,5.5,14.4c0,11.7-2.8,14.4-6.7,14.4V67.7H120.8z"/>
<path class="st0" d="M154.1,52.2c-1.1,0-2.2,0-2.8,3.3l-10.5,88.8l0,0c-0.6,3.3,1.7,3.3,3.3,3.3h5.5c1.7,0,2.8,0,3.3-3.3l2.8-20.5
	h5.5l3.3,20.5c0.6,3.3,1.1,3.3,3.3,3.3h6.1l0,0c3.3,0,2.8-3.3,2.8-3.3l-10.5-88.8c-0.6-3.3-1.1-3.3-2.2-3.3H154.1z M159.1,73.8
	l2.2,39.9h-5.5L159.1,73.8z"/>
<path class="st0" d="M210.1,52.2c-1.1,0-2.2,1.1-2.2,3.3v88.8c0,2.2,1.1,3.3,2.2,3.3h21.1c1.1,0,2.2-1.1,2.2-3.3v-5.5
	c0-2.2-1.1-3.3-2.2-3.3h-10v-30h6.7c1.1,0,2.2-1.1,2.2-3.3v-4.4c0-2.2-1.1-3.3-2.2-3.3h-6.7V63.3h8.9c1.1,0,2.2-1.1,2.2-3.3v-4.4
	c0-2.2-1.1-3.3-2.2-3.3L210.1,52.2L210.1,52.2z"/>
<path class="st0" d="M260,52.2c-1.7,0-2.8,0-3.3,3.3l-3.9,26.1l-3.9-26.1c-0.6-3.3-1.7-3.3-3.3-3.3h-6.1c-3.9,0-3.3,3.3-3.3,3.3l0,0
	l10,44.4l-10,44.4c-0.6,2.2,1.7,3.3,3.3,3.3l0,0h6.1c1.7,0,2.8,0,3.3-3.3l3.9-26.1l3.9,26.1c0.6,3.3,1.7,3.3,3.3,3.3h5h0.6
	c3.3,0,2.8-3.3,2.8-3.3l-10-44.4l10-44.4l0,0c0.6-3.3-1.7-3.3-3.3-3.3H260z"/>
<g>
	<path class="st0" d="M272.8,100.4c0,3.1-1.8,4.5-4.5,4.5c-2.8,0-4.5-1.5-4.5-4.5c0-3.1,1.8-4.5,4.5-4.5
		C271,95.8,272.8,97.3,272.8,100.4z M264.9,100.4c0,2.4,1.2,3.5,3.4,3.5l0,0c2.2,0,3.4-1.2,3.4-3.5c0-2.4-1.2-3.5-3.4-3.5
		C266.1,96.8,264.9,98,264.9,100.4z M266.4,97.9h1.9c1.4,0,1.8,0.5,1.8,1.4c0,0.8-0.2,1.2-1,1.4l1.2,2.1h-1.1l-1.1-2h-0.8v2h-1v-4.9
		H266.4z M267.4,100h0.8c0.7,0,1,0,1-0.6c0-0.5-0.3-0.6-0.9-0.6h-0.9V100z"/>
</g>
</svg>
