<?xml version="1.0" encoding="utf-8"?>
<!-- Generator: Adobe Illustrator 21.0.2, SVG Export Plug-In . SVG Version: 6.00 Build 0)  -->
<svg version="1.1" id="Capa_1" xmlns="http://www.w3.org/2000/svg" xmlns:xlink="http://www.w3.org/1999/xlink" x="0px" y="0px"
	 viewBox="0 0 280.2 199.7" style="enable-background:new 0 0 280.2 199.7;" xml:space="preserve">
<style type="text/css">
	.st0{fill:#70716F;}
</style>
<g>
	<path class="st0" d="M240,55.5c-13.8,2.5-25.3,23-25.3,23s12-33.6,24.6-52.7c1.4-2.1,0.1-5-2.5-5.2c-7.6-0.7-16.8,3.7-24,19.8
		c-12.1,27.3-23.1,59.9-21.3,69.8c1,5.6,4.5,8,7.8,9c3,0.9,6-1,6.6-4.1c1-4.9,3.4-13.9,9.6-27.4c9.9-21.8,20.3-23.5,16.4-10.4
		c-3.9,13.1-6.2,21.8-5,28.6c0.9,4.7,3.9,9.5,8.8,11.4c3.4,1.3,7-1.1,7.2-4.7c0.2-4.3,1.1-11.3,3.7-20.8
		C251.7,74.2,255.6,52.7,240,55.5z"/>
	<path class="st0" d="M150.7,78.1c0.5-1.5-0.3-3.1-1.8-3.6c-31-9.6-64.2,29.3-60.4,54c3.7,22.2,28.7,5.8,36.3-12.8
		c1.5,14.4,8.4,17.6,14.8,18.2c2,0.2,3.6-1.5,3.3-3.5C142,123.5,141.5,106,150.7,78.1z M108.2,118.3c-1.5-8.1,6.4-36.5,28-38.6
		C118.2,125.8,109.3,124.1,108.2,118.3z"/>
	<path class="st0" d="M183.6,63.7c-13.8,2.5-28.7,14.3-26.4,26.8c1.8,10.1,8.5,11.6,10.1,20.5c1.7,9.1-8.7,13.9-13.7,7.9
		c-1-1.2-2.8-1.2-3.9-0.1c-1.1,1.2-2,2.8-1.7,4.9c0.5,3,3.6,6.4,12.3,4.8c17.5-3.2,25.4-16.1,23.9-24.4c-1.5-8.5-8-12.4-9.5-20.7
		c-0.8-4.4,1.4-11.2,7.5-12.3c3.4-0.6,5.7,0.8,7.1,2.2c1.2,1.2,3.1,1.3,4.2,0.1C197.9,69,194.1,61.8,183.6,63.7z"/>
	<path class="st0" d="M110.4,48.7c1.1-1.6,0.2-3.9-1.8-4.2c-5.1-0.8-14.1,0.1-21.2,12.6c-13.5,23.7-23.2,54.3-21.9,75
		c0.6,9.2,7.8,12.3,12.4,13.4c1.8,0.4,3.5-1.1,3.3-2.9C77.2,99.4,102.5,59.8,110.4,48.7z"/>
	<path class="st0" d="M61.7,89.1c-3.1,0.6-7.6,1.4-12.4,2.2c-0.6,0.1-1.1-0.5-0.9-1.1c6.4-20.4,14.5-30.5,21-31.7
		c0.9-0.2,1.7-0.2,2.4-0.1c4.7,0.6,6-6.4,1.3-7.3c-1.4-0.3-3-0.3-4.6-0.1c-13.8,1.6-29.3,10.2-39,43.4c-0.1,0.3-0.3,0.5-0.7,0.6
		c-1.7,0.3-3,0.5-3.9,0.7c-3.7,0.7-5.7,2.1-6.8,3.7c-1.4,1.9,0.3,4.6,2.7,4.2c1.5-0.3,3.3-0.6,5.3-0.9c0.6-0.1,1.1,0.4,1,1
		c-8.3,33.1-10.5,54-8.2,66.9c0.3,1.9,0.8,3.5,1.3,4.9c1.9,5.3,9.6,4.6,10.5-1c2.4-15.6,7.5-45.9,15.1-75c0.1-0.3,0.3-0.6,0.7-0.6
		c5.5-1,10.1-1.8,11.8-2.1c3.2-0.6,5.1-1.8,6.2-3.1C66,91.7,64.3,88.6,61.7,89.1z"/>
	<g>
		<path class="st0" d="M259.4,56.9L259.4,56.9c0.4-0.2,0.9-0.6,0.9-1.2c0-0.4-0.2-0.8-0.4-1c-0.3-0.3-0.8-0.4-1.6-0.4
			c-0.6,0-1.1,0-1.4,0.1v4.7h1.1v-1.9h0.3c0.4,0,0.7,0.2,0.8,0.8c0.1,0.6,0.3,1,0.3,1.1h1.1c-0.1-0.2-0.2-0.8-0.4-1.3
			C259.9,57.4,259.8,57.1,259.4,56.9z M258.3,56.5h-0.4v-1.3c0.1,0,0.2,0,0.5,0c0.5,0,0.8,0.2,0.8,0.7
			C259.2,56.2,258.9,56.5,258.3,56.5z"/>
		<path class="st0" d="M258.5,52.6c-2.4,0-4.3,1.9-4.3,4.3c0,2.3,1.9,4.3,4.3,4.3s4.3-1.9,4.3-4.3C262.7,54.5,260.8,52.6,258.5,52.6
			z M258.5,60.4c-1.9,0-3.5-1.6-3.5-3.5s1.6-3.5,3.5-3.5s3.5,1.6,3.5,3.5C262,58.8,260.4,60.4,258.5,60.4z"/>
	</g>
</g>
</svg>
