<?xml version="1.0" encoding="utf-8"?>
<!-- Generator: Adobe Illustrator 21.0.2, SVG Export Plug-In . SVG Version: 6.00 Build 0)  -->
<svg version="1.1" id="Capa_1" xmlns="http://www.w3.org/2000/svg" xmlns:xlink="http://www.w3.org/1999/xlink" x="0px" y="0px"
	 viewBox="0 0 280.2 199.7" style="enable-background:new 0 0 280.2 199.7;" xml:space="preserve">
<style type="text/css">
	.st0{fill:#70716F;}
</style>
<g>
	<path class="st0" d="M38.3,105.5l-1,11.3c3.2-0.7,5.4-3.4,5.7-6.9C43.3,106.5,41.6,104.6,38.3,105.5z"/>
	<polygon class="st0" points="179.5,79.8 177.8,87 174.8,99.8 180.9,98.5 179.8,86.6 	"/>
	<polygon class="st0" points="90.1,98.7 88.4,105.9 85.4,118.7 91.5,117.4 90.4,105.5 	"/>
	<path class="st0" d="M36.6,124l-1.2,12.6c3.5-0.6,5.7-3.7,6.1-7.6C41.9,125.3,40,123.1,36.6,124z"/>
	<path class="st0" d="M253.3,46.4c0,0-70.2,1.9-116.9,11.6C91.5,67.4,31.6,93.8,31.6,93.8s-9.2,3.1-10.7,15l-3.4,34.3
		c0,0-0.4,10.1,8.9,10.1c0,0,73.6-2.4,117.9-14.1c0,0,51-11.1,108-35.4c0,0,6.7-2.5,7.9-13.6l2.5-32.6
		C262.6,57.6,264.3,46.4,253.3,46.4z M50,128.2c-0.8,9.2-7.6,14.4-15.5,16.1l-8.4,1.8l4.3-46.5l8.5-1.8c3.4-0.7,6.2-1.2,8.8,0.6
		c2.7,1.9,3.9,5.6,3.5,9.5c-0.4,4.1-2.1,7.6-5.6,10.6C49,119.7,50.3,124.2,50,128.2z M71.2,136.6l-17.7,3.7l4.3-46.5l8.6-1.8
		L63,129.8l9-1.9L71.2,136.6z M93.3,131.9l-0.9-7.5l-8.7,1.9l-2.3,8.2l-8.6,1.8l14.4-48.6l9.1-1.9l6.2,44.3L93.3,131.9z
		 M132.6,123.5l-8.2,1.7l-8.1-25.8l-2.2,28l-8.6,1.8l4.3-46.5L118,81l7.7,24.3l2.5-26.5l8.6-1.8L132.6,123.5z M160.2,117.4
		c-1.3,0.8-2.7,1.4-4.1,1.6c-12.5,2.6-18.3-7.9-17.1-20.1c1.1-11.5,9.3-24.9,21.1-27.4c1.5-0.3,2.9-0.3,4.3-0.1l-0.8,8.4
		c-1.1-0.1-2.1,0-3.2,0.2c-7.6,1.6-11.6,9.6-12.2,16.8c-0.6,6.9,1.9,14.7,9.4,13.1c1.1-0.2,2.2-0.8,3.4-1.4L160.2,117.4z M182.4,113
		l-0.9-7.5l-8.8,1.9l-2.3,8.2l-8.6,1.8l14.4-48.6l9.1-1.9l6.2,44.3L182.4,113z M204.9,108.2l-8.6,1.8l3.5-37.9l-6.8,1.4l0.8-8.6
		l22.3-4.7l-0.8,8.6l-6.8,1.4L204.9,108.2z M232.9,93.9l-0.8,8.6l-17.5,3.7l4.3-46.5l17.4-3.7l-0.8,8.6l-8.7,1.9l-0.9,10.1l7.7-1.6
		l-0.8,8.6l-7.7,1.6l-1,10.5L232.9,93.9z M252.6,98.2l-17.7,3.7l4.3-46.5l8.6-1.8l-3.5,37.9l9-1.9L252.6,98.2z M251.5,84.6
		c-1.4,0-2.5-1.1-2.5-2.4c0-1.4,1.1-2.4,2.5-2.4s2.5,1.1,2.5,2.4S252.9,84.6,251.5,84.6z"/>
	<path class="st0" d="M251.5,81.3c-0.1,0-0.3,0-0.3,0V82h0.3c0.3,0,0.6-0.1,0.6-0.4C252,81.5,251.8,81.3,251.5,81.3z"/>
	<path class="st0" d="M251.5,80.2c-1,0-1.9,0.9-1.9,1.9c0,1.1,0.8,1.9,1.9,1.9c1,0,1.8-0.9,1.8-1.9
		C253.4,81.1,252.6,80.2,251.5,80.2z M252.1,83.4c-0.1-0.1-0.1-0.3-0.2-0.6c0-0.3-0.2-0.4-0.5-0.4h-0.3v1h-0.6V81
		c0.2,0,0.5-0.1,0.9-0.1c0.5,0,0.7,0.1,0.8,0.2s0.3,0.3,0.3,0.5c0,0.3-0.2,0.5-0.5,0.6l0,0c0.2,0.1,0.4,0.3,0.4,0.6
		c0.1,0.4,0.1,0.5,0.2,0.6C252.6,83.4,252.1,83.4,252.1,83.4z"/>
</g>
</svg>
