<?xml version="1.0" encoding="utf-8"?>
<!-- Generator: Adobe Illustrator 21.0.2, SVG Export Plug-In . SVG Version: 6.00 Build 0)  -->
<svg version="1.1" id="Capa_1" xmlns="http://www.w3.org/2000/svg" xmlns:xlink="http://www.w3.org/1999/xlink" x="0px" y="0px"
	 viewBox="0 0 280.2 199.7" style="enable-background:new 0 0 280.2 199.7;" xml:space="preserve">
<style type="text/css">
	.st0{fill:#70716F;}
</style>
<g>
	<g>
		<g>
			<path class="st0" d="M21,153c-8.3,0-21-3.5-21-42.7s12.7-42.7,21-42.7c2.7,0,4.9,0.8,4.9,0.8v13.3c-1.2-0.2-2.1-0.4-3.6-0.4
				c-3.3,0-9.6,2.1-9.6,29s6.3,29,9.6,29c1.4,0,2.4-0.2,3.6-0.4v13.3C26,152.2,23.7,153,21,153z"/>
		</g>
		<g>
			<path class="st0" d="M31.9,152.5V68.2h12.8v70.6h13v13.6H31.9V152.5z"/>
		</g>
		<g>
			<path class="st0" d="M76.4,153c-9.7,0-17.9-8.2-17.9-42.7s8.2-42.7,17.9-42.7s17.9,8.2,17.9,42.7S86.1,153,76.4,153z M76.4,81.3
				c-2.7,0-5.1,5.8-5.1,29s2.4,29,5.1,29s5.1-5.8,5.1-29S79.1,81.3,76.4,81.3z"/>
		</g>
		<g>
			<path class="st0" d="M124.1,120.7c2,2.9,4.7,7.8,6.4,13.4c2,6.3,2.3,12.5,2.3,18.3H120c0-4.1-0.3-8.4-1.7-12.8
				c-1.4-4.6-3.4-8.1-4.8-9.8v22.6h-12.8V68.2h10c12.2,0,22.3,8.3,22.3,26.2C133,110.7,127,118.2,124.1,120.7z M113.4,82.1v30
				c2,0,6.8-6.3,6.8-17.6C120.2,86.6,117.8,82.1,113.4,82.1z"/>
		</g>
		<g>
			<path class="st0" d="M158.5,152.5l-1.4-13.6h-8.5l-1.4,13.6h-11.5l9.9-84.2h14.6l9.9,84.2H158.5z M152.9,93l-3,32.2h5.8L152.9,93
				z"/>
		</g>
		<g>
			<path class="st0" d="M174.6,152.5V68.2h12.8v70.6h13v13.6h-25.8V152.5z"/>
		</g>
		<g>
			<path class="st0" d="M220.4,153c-8.4,0-16.8-8.2-16.8-24.7V68.2h12.8v62.6c0,5,1.8,8.5,4,8.5s4.1-3.5,4.1-8.5V68.2h12.8v60.1
				C237.2,144.8,228.8,153,220.4,153z"/>
		</g>
		<g>
			<path class="st0" d="M241.7,152.5l13.1-70.6h-11.7V68.2h28.2l-13.1,70.6h13.4v13.6h-29.9V152.5z"/>
		</g>
	</g>
	<g>
		<polygon class="st0" points="256.4,76.2 263.1,62.6 272.3,65.1 270.7,83.3 265.8,70.3 		"/>
	</g>
	<path class="st0" d="M266.4,136.8c-2.3,0-4.2-1.9-4.2-4.3s1.9-4.3,4.2-4.3c2.3,0,4.2,1.9,4.2,4.3S268.7,136.8,266.4,136.8z
		 M266.4,129c-1.9,0-3.4,1.6-3.4,3.5s1.5,3.5,3.4,3.5s3.4-1.6,3.4-3.5S268.3,129,266.4,129z"/>
	<g>
		<path class="st0" d="M265.7,131v1.2h1.1c0.2,0,0.4,0,0.5-0.1c0.2-0.1,0.3-0.3,0.3-0.5c0-0.3-0.1-0.5-0.3-0.6
			c-0.1-0.1-0.3-0.1-0.5-0.1h-1.1V131z M267.7,130.3c0.2,0.1,0.3,0.2,0.4,0.3s0.2,0.2,0.2,0.4c0.1,0.1,0.1,0.3,0.1,0.5
			s-0.1,0.4-0.2,0.6c-0.1,0.2-0.3,0.4-0.5,0.4c0.2,0.1,0.4,0.2,0.4,0.4c0.1,0.2,0.1,0.4,0.1,0.7v0.3c0,0.2,0,0.4,0,0.4
			c0,0.1,0.1,0.2,0.2,0.3v0.1h-1c0-0.1,0-0.2-0.1-0.2c0-0.1,0-0.3,0-0.4v-0.4c0-0.3-0.1-0.5-0.2-0.6s-0.3-0.1-0.6-0.1h-1v1.8h-0.9
			v-4.6h2.2C267.3,130.2,267.5,130.2,267.7,130.3z"/>
	</g>
	<g>
		<path class="st0" d="M272.9,63.9l6.6-2.3l-7.7-0.8l4.1-7.3l-6.8,5.4l-2.7-8.7l-0.2,7.1c-0.7-0.6-1.6-1.1-3-1.8
			c-7.1-3.3-27.7-8.9-49.4-8.7c-47.5,0.3-93.9,17.1-93.9,17.1s49.6-11,93.6-10.7c27.3,0.2,45.1,6.3,49.8,8.2
			c-6.6-1.3-23.2-3.3-34.8-3.9c-32.1-1.5-55.5,2.9-79.9,6.6c0,0,54.4-3,78.4-1.6c18,1,30.4,2.5,36.6,3.4l-3.2,5.9l6.3-4.3l2.8,8
			l0.8-8.7l9.9,5.5L272.9,63.9z"/>
	</g>
</g>
</svg>
