<?xml version="1.0" encoding="utf-8"?>
<!-- Generator: Adobe Illustrator 22.1.0, SVG Export Plug-In . SVG Version: 6.00 Build 0)  -->
<svg version="1.1" id="Capa_1" xmlns="http://www.w3.org/2000/svg" xmlns:xlink="http://www.w3.org/1999/xlink" x="0px" y="0px"
	 viewBox="0 0 2014.3 933.6" style="enable-background:new 0 0 2014.3 933.6;" xml:space="preserve">
<style type="text/css">
	.st0{fill:#FFFFFE;}
	.st1{fill:#8CCFF0;}
	.st2{fill:#001689;}
</style>
<g>
	<path class="st0" d="M1959.1,321.6c2.2-5.8,4.4-10.9,6.5-17.4c26.1-74.8,29-128.5,9.4-164.1c-1.5-3.6-2.9-6.5-4.4-9.4
		c4.4-9.4,5.1-19.6,2.9-29.8c-1.5-5.8-3.6-10.9-6.5-15.2c-0.7-1.5-1.5-3.6-1.5-5.1c-4.4-9.4-18.1-32.7-59.5-32.7
		c-47.9,0-126.3,42.8-156.1,71.1c-3.6,3.6-13.8,13.1-26.9,27.6c-0.7-1.5-1.5-2.9-2.2-3.6c-1.5-4.4-3.6-8.7-5.8-12.3
		c14.5-24.7,18.1-52.3,15.2-75.5c-0.7-9.4-3.6-17.4-8-23.2c-6.5-21.8-25.4-31.9-42.1-31.9c-1.5,0-3.6,0-5.8,0.7
		c-13.8,1.5-26.9,10.2-34.8,21.8c-0.7,1.5-1.5,2.2-2.2,3.6c-6.5,5.1-31.2,9.4-49.4,13.1c-14.5,2.9-30.5,5.8-47.9,10.2
		c-66.1,16.7-96.6,74-102.4,118.3c0,2.2-0.7,6.5-0.7,12.3c-9.4,8-16,17.4-18.1,28.3c0,0.7-0.7,1.5-0.7,2.2
		c-20.3-16-47.9-24-79.1-20.3c-51.5,5.8-101.6,35.6-144.5,83.5l0,0c-2.2-5.8-5.1-11.6-8.7-16.7c-9.4-11.6-23.2-18.1-38.5-18.1
		c-19.6,0-41.4,10.2-67.5,32.7c-18.1,14.5-31.9,34.8-42.1,53.7c0-0.7-0.7-0.7-0.7-1.5c-10.2-27.6-33.4-44.3-61-44.3
		c-12.3,0-25.4,3.6-38.5,10.2c-29,14.5-47.2,34.1-53,57.4c-0.7,2.9-1.5,6.5-1.5,9.4c-16.7-15.2-39.9-23.2-67.5-23.2
		c-2.2,0-3.6,0-5.8,0c-48.6,2.2-111.8,34.1-151.7,77c-5.1-6.5-10.2-11.6-14.5-14.5c-10.9-7.3-24-10.9-37-10.9
		c-42.8,0-80.6,39.2-100.9,63.9c-1.5-2.2-3.6-4.4-6.5-6.5c-9.4-8-21.1-11.6-34.8-11.6c-10.2,0-37.8,5.1-62.4,16.7
		c-0.7-0.7-0.7-1.5-1.5-2.2c-17.4-44.3-61.7-68.2-117.6-62.4c-63.2,7.3-153.9,47.2-228,198.9c-42.8,92.9-76.2,214.2-38.5,283.9
		c6.5,17.4,16.7,31.2,29.8,42.1c20.3,16.7,45.7,26.1,74,26.1c55.2,0,121.2-35.6,172.8-88.6c2.2,4.4,4.4,8.7,7.3,12.3
		c10.2,12.3,24.7,18.9,41.4,18.9c21.8,0,45-10.9,70.4-31.9c24-20.3,31.9-40.7,37-62.4c1.5,2.9,2.9,5.8,4.4,9.4
		c8,23.2,29,43.6,64.6,43.6c8.7,0,18.1-1.5,28.3-4.4c36.3-10.2,51.5-30.5,58.1-45.7c2.2-5.8,3.6-11.6,4.4-16.7
		c8,5.8,15.2,10.2,19.6,12.3l1.5,0.7c10.9,5.8,25.4,8.7,42.8,8.7c40.7,0,111.1-18.1,160.4-80.6c3.6,4.4,8,8,11.6,10.9
		c10.9,7.3,24,10.9,37.8,10.9c44.3,0,84.2-42.1,103.1-66.1c0,0,0,0.7,0.7,0.7c5.8,21.1,25.4,35.6,50.8,35.6
		c27.6,0,58.8-17.4,75.5-34.1c17.4-17.4,20.3-34.8,20.3-45.7c0-2.2,0-4.4,0-5.8c2.9,2.9,5.8,6.5,9.4,8.7
		c17.4,14.5,39.9,21.8,64.6,21.8c48.6,0,105.3-29,148.8-74c1.5,2.9,2.9,5.1,5.1,7.3c10.2,11.6,24.7,18.1,41.4,18.1
		c21.8,0,45.7-10.9,70.4-33.4c24-21.1,31.2-41.4,36.3-63.2c1.5,2.9,2.9,5.8,4.4,8.7c8,22.5,29.8,43.6,63.9,43.6
		c9.4,0,19.6-1.5,29.8-4.4c36.3-10.9,50.8-31.2,57.4-46.5c6.5-16.7,5.1-32.7,1.5-44.3c19.6,27.6,51.5,43.6,89.3,43.6
		c47.9,0,105.3-27.6,151.7-86.4c10.9,15.2,28.3,25.4,48.6,25.4c32.7,0,58.8-26.1,58.8-58.8C2014.3,349.2,1990.4,323.8,1959.1,321.6z
		"/>
	<g>
		<path class="st1" d="M627,447.2c24,15.2-10.2,101.6-24,149.6c-15.2,52.3-38.5,101.6-39.9,137.9c0,3.6,0.7,8,1.5,10.9
			c0,0,20.3,34.1-28.3,47.9c-42.8,11.6-44.3-18.9-44.3-18.9c8-83.5,92.9-261.3,55.2-233.8c-6.5,5.1-109.6,144.5-109.6,144.5
			c-34.8,79.1-18.9,102.4-51.5,129.9c-37,31.2-58.1,25.4-55.2,9.4c21.8-107.4,55.9-203.3,79.9-310.7c2.9-11.6,58.8-31.9,68.2-23.2
			c7.3,5.8-26.9,109.6-31.2,132.9c0,0-1.5,17.4,9.4,1.5c10.2-16,77.7-121.2,77.7-121.2S590,423.2,627,447.2z"/>
		<path class="st1" d="M867.3,686.8c-24-16,10.9-101.6,25.4-148.8c16-52.3,39.9-100.9,41.4-137.2c0-3.6-0.7-8-0.7-10.9
			c0,0-17.4-24,29-47.2c39.9-20.3,44.3,19.6,44.3,19.6c-8.7,83.5-90,266.4-58.1,233c31.9-32.7,105.3-183.7,105.3-183.7
			c7.3-8,26.1-65.3,58.8-92.2c37-31.2,53-26.1,49.4-10.9c-23.2,107.4-71.9,204.7-70.4,314.3c0,24-66.1,53.7-66.8,29.8
			c-0.7-36.3,19.6-116.2,24-139.4c0,0,1.5-17.4-9.4-1.5c-10.9,16-79.1,120.5-79.1,120.5S903.6,711.5,867.3,686.8z"/>
		<path class="st1" d="M309,757.2c0,0,0.7-26.9-23.2-2.9c-24,24-59.5,49.4-59.5,49.4c-58.8,31.2-88.6,6.5-88.6,6.5
			c-29.8-27.6-8-85.7-8-85.7s158.3-45.7,226.5-167c32.7-57.4,16-126.3-63.9-117.6c-66.8,7.3-137.9,58.8-195.3,176.4
			C46.9,718.7,23,838.5,70.9,878.4c58.8,49.4,179.3-21.8,235.9-119.1L309,757.2z M237.9,632.3c-44.3,42.1-100.2,66.8-100.2,58.8
			c-0.7-22.5,86.4-197.5,143.7-167C310.5,539.4,298.1,576.4,237.9,632.3z"/>
		<path class="st1" d="M1362.4,497.3c0,0,6.5-24-13.1-5.1c-19.6,18.9-52.3,40.7-52.3,40.7c-47.9,24.7-74.8,6.5-74.8,6.5
			c-24-21.8-6.5-67.5-6.5-67.5s135.8-29.8,191.7-124.9c26.9-45,7.3-106-58.1-98.7c-55.2,5.8-121.2,52.3-168.4,145.2
			c-40.7,80.6-52.3,169.2-13.1,201.1c48.6,39.2,147.4-17.4,193.8-93.7L1362.4,497.3z M1307.9,397.8c-37.8,34.1-85.7,55.2-85.7,47.9
			c-0.7-18.1,71.9-145.2,107.4-135.8C1356.6,318,1358.8,352.1,1307.9,397.8z"/>
		<path class="st1" d="M1783.5,164.8c0,0-84.9,70.4-98,205.5c-13.1,135.8,169.9,128.5,241.7-77c63.9-182.2-41.4-162.6-82.8-121.2
			c0,0-9.4,7.3-9.4,14.5c0,8,0,8,4.4,8c3.6,0,33.4-22.5,46.5-13.1c24,16.7,14.5,69.7-38.5,152.5s-93.7,57.4-93.7,16.7
			c0-90,63.2-204,148.8-222.1c0,0,24-4.4,28.3-8.7c6.5-6.5-0.7-14.5-19.6-14.5C1877.8,104.5,1806.7,141.6,1783.5,164.8z"/>
		<path class="st1" d="M1681.8,163.3c24,15.2-8,101.6-21.8,149.6c-14.5,52.3-37,101.6-37.8,137.9c0,3.6,1.5,8,1.5,10.9
			c0,0,21.1,34.1-27.6,47.9c-42.8,12.3-45-18.1-45-18.1c6.5-84.2,88.6-262.8,51.5-234.5c-6.5,5.1-107.4,146.6-107.4,146.6
			c-33.4,79.9-17.4,103.1-49.4,130.7c-36.3,31.9-58.1,26.1-55.2,10.9c20.3-108.2,52.3-204,74.8-312.2c2.2-11.6,58.1-32.7,68.2-24.7
			c7.3,5.8-25.4,110.3-29,133.6c0,0-0.7,17.4,9.4,1.5c10.2-16,75.5-122.7,75.5-122.7S1644.1,140.1,1681.8,163.3z"/>
		<path class="st1" d="M1493.8,195.3c0,0-2.9,3.6-6.5,3.6c-3.6,0.7-3.6-3.6-2.9-9.4c0.7-5.8,9.4-68.2,71.9-84.2
			c62.4-16,110.3-16,124.1-45c0,0,1.5-2.9,5.1-2.9c3.6-0.7,3.6,2.2,4.4,5.8c0.7,3.6,9.4,64.6-57.4,89.3c0,0-33.4,8.7-56.6,5.8
			C1552.6,154.6,1520.7,157.5,1493.8,195.3z"/>
		<path class="st1" d="M810.7,455.2c0,0,11.6-33.4-31.2-23.2c-42.8,10.2-59.5,65.3-27.6,87.1c31.9,21.8,98,65.3,75.5,119.8
			C783.1,747,672.7,757.9,648.8,745.6c-11.6-6.5-45-20.3-28.3-74.8c17.4-54.4,54.4-34.1,43.6-10.2c-16,36.3,10.9,47.2,33.4,39.9
			c21.1-6.5,52.3-28.3,52.3-63.2c0-55.2-77.7-43.6-87.1-109.6c-9.4-66.1,96.6-135.8,154.6-137.9c58.1-2.2,62.4,42.1,57.4,61.7
			c-5.1,20.3-18.1,24.7-42.8,31.2C801.9,491.5,810.7,455.2,810.7,455.2z"/>
	</g>
	<g>
		<path class="st2" d="M621.2,434.1c24,15.2-10.2,101.6-24,149.6C582,636,558.7,685.3,557.3,721.6c0,3.6,0.7,8,1.5,10.9
			c0,0,20.3,34.1-28.3,47.9c-42.8,11.6-44.3-18.9-44.3-18.9c8-83.5,92.9-261.3,55.2-233.8c-6.5,5.1-109.6,144.5-109.6,144.5
			c-34.8,79.1-18.9,102.4-51.5,129.9c-37,31.2-58.1,25.4-55.2,9.4c21.8-108.2,55.9-203.3,79.9-310.7c2.2-11.6,58.8-31.9,68.2-23.2
			c7.3,5.8-26.9,109.6-31.2,132.9c0,0-1.5,17.4,9.4,1.5c10.2-16,77.7-121.2,77.7-121.2S584.1,410.9,621.2,434.1z"/>
		<path class="st2" d="M861.5,674.4c-24-15.2,10.9-101.6,25.4-148.8c16-52.3,39.9-100.9,41.4-137.2c0-3.6-0.7-8-0.7-10.9
			c0,0-17.4-24,29-47.2c39.9-20.3,44.3,19.6,44.3,19.6c-8.7,83.5-90,266.4-58.1,233c31.9-32.7,105.3-183.7,105.3-183.7
			c7.3-8,26.1-65.3,58.8-92.2c37-31.2,53-26.1,49.4-10.9c-23.2,107.4-71.9,204-70.4,314.3c0,24-66.1,53.7-66.8,29.8
			c-0.7-36.3,19.6-116.2,23.2-139.4c0,0,1.5-17.4-9.4-1.5c-10.9,16-79.1,120.5-79.1,120.5S897.8,698.4,861.5,674.4z"/>
		<path class="st2" d="M303.2,744.1c0,0,0.7-26.9-23.2-2.9c-24,24-59.5,49.4-59.5,49.4c-58.8,31.2-88.6,6.5-88.6,6.5
			c-29.8-27.6-8-85.7-8-85.7s158.3-45.7,226.5-167c32.7-57.4,16-126.3-63.9-117.6c-66.8,7.3-137.9,58.8-195.3,176.4
			c-49.4,102.4-74,222.1-26.1,262.1c58.8,49.4,179.3-21.8,235.9-119.1L303.2,744.1z M232.1,620c-44.3,42.1-100.2,66.8-100.2,58.8
			c-0.7-22.5,86.4-197.5,143.7-167C304.6,527.1,292.3,564.1,232.1,620z"/>
		<path class="st2" d="M1356.6,484.9c0,0,6.5-24-13.1-5.1c-19.6,18.9-52.3,40.7-52.3,40.7c-47.9,24.7-74.8,6.5-74.8,6.5
			c-24-21.8-6.5-67.5-6.5-67.5s135.8-29.8,191.7-125.6c26.9-45,7.3-106-58.1-98.7c-55.2,5.8-121.2,52.3-168.4,145.2
			c-40.7,80.6-52.3,169.2-13.1,201.1c48.6,39.2,147.4-17.4,193.8-93.7L1356.6,484.9z M1302.1,385.5c-37.8,34.1-85.7,55.2-85.7,47.9
			c-0.7-18.1,71.9-145.2,107.4-135.8C1350.8,305.6,1353,339.8,1302.1,385.5z"/>
		<path class="st2" d="M1777.6,152.5c0,0-84.9,70.4-98,205.5c-13.1,135.8,169.9,128.5,241.7-77c63.9-182.2-41.4-162.6-82.8-121.2
			c0,0-9.4,7.3-9.4,15.2c0,8,0,8,4.4,8c3.6,0,33.4-22.5,46.5-13.1c24,16.7,14.5,69.7-38.5,152.5c-53,82.8-93.7,57.4-93.7,16.7
			c0-90,63.2-204,148.8-222.1c0,0,24-4.4,28.3-8.7c6.5-6.5-0.7-14.5-19.6-14.5C1872,91.5,1800.9,129.2,1777.6,152.5z"/>
		<path class="st2" d="M1676,150.3c24,15.2-8,101.6-21.8,149.6c-14.5,52.3-37,102.4-37.8,137.9c0,3.6,1.5,8,1.5,10.9
			c0,0,21.1,34.1-27.6,47.9c-42.8,12.3-45-18.1-45-18.1c6.5-84.2,88.6-262.8,51.5-234.5c-6.5,5.1-107.4,146.6-107.4,146.6
			c-33.4,79.9-17.4,103.1-49.4,130.7c-36.3,31.9-58.1,26.1-55.2,10.9c20.3-108.2,52.3-204,74.8-312.2c2.2-11.6,58.1-32.7,68.2-24.7
			c7.3,5.8-25.4,110.3-29,133.6c0,0-0.7,17.4,9.4,1.5c10.2-16,75.5-122.7,75.5-122.7S1638.3,127.8,1676,150.3z"/>
		<path class="st2" d="M1488,182.2c0,0-2.9,3.6-6.5,3.6c-3.6,0.7-3.6-3.6-2.9-9.4c0.7-5.8,9.4-68.2,71.9-84.2
			c62.4-16,110.3-16,124.1-45c0,0,1.5-2.9,5.1-2.9c3.6-0.7,3.6,2.2,4.4,5.1c0,3.6,9.4,64.6-57.4,89.3c0,0-33.4,8.7-56.6,5.8
			C1546.8,142.3,1514.8,145.2,1488,182.2z"/>
		<path class="st2" d="M804.8,442.8c0,0,11.6-33.4-31.2-23.2c-42.8,10.2-59.5,65.3-27.6,87.1c31.9,21.8,98,65.3,75.5,119.8
			C777.3,734.7,666.9,745.6,643,733.2c-11.6-6.5-45.7-20.3-28.3-74.8c17.4-54.4,54.4-34.1,43.6-10.2c-16,36.3,10.9,47.2,33.4,39.9
			c21.1-6.5,52.3-28.3,52.3-63.2c0-55.2-77.7-43.6-87.1-109.6c-9.4-66.1,96.6-135.8,154.6-137.9c58.1-2.2,62.4,42.1,57.4,61.7
			c-5.1,20.3-18.1,24.7-42.8,31.2C796.1,479.1,804.8,442.8,804.8,442.8z"/>
	</g>
	<path class="st2" d="M1954.8,413.1c-20.3,0-33.4-13.8-33.4-32.7c0-18.9,13.8-32.7,33.4-32.7c20.3,0,34.1,13.8,34.1,32.7
		C1989.6,399.3,1975.1,413.1,1954.8,413.1z M1954.8,355.7c-14.5,0-24,10.2-24,24c0,14.5,10.2,24.7,24,24.7
		c14.5,0,24.7-9.4,24.7-24.7C1979.5,365.9,1969.3,355.7,1954.8,355.7z M1970.8,397.8h-9.4l-5.1-11.6c-0.7-1.5-1.5-2.2-2.9-2.2h-1.5
		v13.8h-8.7v-35.6h13.1c7.3,0,11.6,2.9,11.6,9.4c0,5.1-2.9,8-5.8,9.4c1.5,0.7,2.2,1.5,2.2,2.2L1970.8,397.8z M1953.3,376.8
		c3.6,0,5.8-0.7,5.8-4.4c0-3.6-2.2-3.6-5.8-3.6h-0.7v8.7h0.7V376.8z"/>
</g>
</svg>
