<?xml version="1.0" encoding="utf-8"?>
<!-- Generator: Adobe Illustrator 21.0.2, SVG Export Plug-In . SVG Version: 6.00 Build 0)  -->
<svg version="1.1" id="Capa_1" xmlns="http://www.w3.org/2000/svg" xmlns:xlink="http://www.w3.org/1999/xlink" x="0px" y="0px"
	 viewBox="0 0 280.2 199.7" style="enable-background:new 0 0 280.2 199.7;" xml:space="preserve">
<style type="text/css">
	.st0{fill:#8E9090;}
	.st1{fill:#FFFFFF;}
	.st2{fill:#060E9F;}
	.st3{fill:#DF040B;}
</style>
<g>
	<g>
		<path class="st0" d="M243.5,14.5c-0.1-0.7-0.2-1.4-0.4-2.1c0,0,0,0,0-0.1c0,0,0-0.1,0-0.1c0,0,0,0,0-0.1c0,0,0,0,0-0.1
			c0,0,0,0,0-0.1c0,0,0,0,0-0.1c0,0,0,0,0-0.1c0,0,0,0,0-0.1c0,0,0,0,0-0.1c0,0,0-0.1,0-0.1c0,0,0,0,0-0.1c0,0,0,0,0-0.1
			c0,0,0,0,0-0.1c0,0,0,0,0-0.1c0,0,0-0.1,0-0.1c0,0,0,0,0-0.1c0,0,0-0.1,0-0.1c0,0,0,0,0-0.1c0,0,0,0,0-0.1c0,0,0,0,0-0.1
			c0,0,0,0,0-0.1c0,0,0,0,0-0.1c0,0,0,0,0-0.1c0,0,0,0,0-0.1c0,0,0,0,0-0.1c0,0,0,0,0-0.1c0,0,0,0,0-0.1c0,0,0,0,0-0.1
			c0,0,0,0,0-0.1c0,0,0,0,0-0.1c0,0,0,0,0-0.1c0,0,0,0,0-0.1c0,0,0,0,0-0.1c0,0,0,0,0-0.1c0,0,0,0,0-0.1c0,0,0,0,0-0.1
			c0,0,0,0,0-0.1c0,0,0,0,0-0.1c0,0,0,0,0-0.1c0,0,0,0,0-0.1c0,0,0,0,0-0.1c0,0,0,0,0-0.1c0,0,0,0,0-0.1c0,0,0,0,0-0.1
			c0,0,0,0,0-0.1c0,0,0,0,0-0.1c0,0,0,0,0-0.1c0,0,0,0,0-0.1c0,0,0,0,0-0.1c0,0,0,0,0-0.1c0,0,0,0,0-0.1c0,0,0,0,0-0.1
			c0,0,0,0,0-0.1c0,0,0,0,0-0.1c0,0,0,0,0-0.1c0,0,0,0,0-0.1c-1.5-4.5-5.9-7-10.9-5.8l-0.1,0c-2.6,0.7-3.9,1-6.5,1.7
			c-7.2,2-14.6,4.2-22,6.7l-1.8,0.6l0-0.1l-5,1.8c-7.8,2.8-15.8,5.8-23.7,8.9c-5.8,2.3-10.4,5.4-13.7,9.3v0l0,0l0-0.1l0,0l0-0.1l0,0
			l0-0.1l0,0l0-0.1l0,0l0-0.1l0,0l0-0.1l0,0l0-0.1l0,0l0-0.1l0,0l0-0.1l0,0l0-0.1l0,0l0-0.1l0,0l0-0.1l0,0l0-0.1l0,0l0-0.1l0,0
			l0-0.1l0,0l0-0.1l0,0l0-0.1l0,0l0-0.1l0,0l0-0.1l0,0l0-0.1l0,0l0-0.1l0,0l0-0.1l0,0l0-0.1l0,0l0-0.1l0,0l0-0.1l0,0l0-0.1l0,0
			l0-0.1l0,0l0-0.1l0,0l0-0.1l0,0l0-0.1l0,0l0-0.1l0,0l0-0.1l0,0l0-0.1l0,0l0-0.1l0,0l0-0.1l0,0l0-0.1l0,0l0-0.1l0,0l0-0.1l0,0
			l0-0.1l0,0l0-0.1l0,0l0-0.1l0,0l0-0.1l0,0l0-0.1l0,0l0-0.1l0,0l0-0.1l0,0l0-0.1l0,0l0-0.1l0,0l0-0.1l0,0l0-0.1l0,0l0-0.1l-5.4,2.4
			c-4,1.8-8.1,3.7-12.2,5.7c-6.9,3.3-12.1,7.7-15.4,13.1l0.1-2l0,0l0-0.1l0,0l0-0.1l0,0l0-0.1l0,0l0-0.1l0,0l0-0.1l0,0l0-0.1l0,0
			l0-0.1l0,0l0-0.1l0,0l0-0.1l0,0l0-0.1l0,0l0-0.1l0,0l0-0.1l0,0l0-0.1l0,0l0-0.1l0,0l0-0.1l0,0l0-0.1l0,0l0-0.1l0,0l0-0.1l0,0
			l0-0.1l0,0l0-0.1l0,0l0-0.1l0,0l0-0.1l0,0l0-0.1l0,0l0-0.1l0,0l0-0.1l0,0l0-0.1l0,0l0-0.1l0,0l0-0.1l0,0l0-0.1l0,0l0-0.1l0,0
			l0-0.1l0,0l0-0.1l0,0l0-0.1l0,0l0-0.1l0,0l0-0.1l0,0l0-0.1l0,0l0-0.1l0,0l0-0.1l0,0l0-0.1l0,0l0-0.1l0,0l0-0.1l0,0l0-0.1l0,0
			l0-0.1l0,0l0-0.1l0,0l0-0.1l0,0l0-0.1l0,0l0-0.1l0,0l0-0.1l0,0l0-0.1l0,0l0-0.1l0,0l0-0.1l0,0l0-0.1l0,0l0-0.1l0,0l0-0.1l0,0
			l0-0.1l0,0l0-0.1l0,0l0-0.1l0,0l0-0.1l0,0l0-0.1l0,0l0-0.1l0,0l0-0.1l-5.7,3.1c-3.5,1.9-7.1,3.9-10.7,5.9l0.3-11.8l0,0l0-0.1l0,0
			l0-0.1l0,0l0-0.1l0,0l0-0.1l0,0l0-0.1l0,0l0-0.1l0,0l0-0.1l0,0l0-0.1l0,0l0-0.1l0,0l0-0.1l0,0l0-0.1l0,0l0-0.1l0,0l0-0.1l0,0
			l0-0.1l0,0l0-0.1l0,0l0-0.1l0,0l0-0.1l0,0l0-0.1l0,0l0-0.1l0,0l0-0.1l0,0l0-0.1l0,0l0-0.1l0,0l0-0.1l0,0l0-0.1l0,0l0-0.1l0,0V40
			l0,0l0-0.1l0,0l0-0.1l0,0l0-0.1l0,0l0-0.1l0,0l0-0.1l0,0l0-0.1l0,0l0-0.1l0,0l0-0.1l0,0l0-0.1l0,0l0-0.1l0,0l0-0.1l0,0l0-0.1l0,0
			l0-0.1l0,0l0-0.1l0,0l0-0.1l0,0l0-0.1l0,0l0-0.1l0,0l0-0.1l0,0l0-0.1l0,0l0-0.1l0,0l0-0.1l0,0l0-0.1l0,0l0-0.1l0,0l0-0.1l0,0
			l0-0.1l0,0l0-0.1l0,0l0-0.1l0,0l0-0.1l0,0l0-0.1l0,0l0-0.1l0,0l0-0.1l0,0l0-0.1l0,0l0-0.1l0,0l0-0.1l0,0l0-0.1l-5.8,3.4
			c-8,4.7-15.9,9.5-23.8,14.5c-3.2,2-5.8,5.5-7,9.4l-0.1,0.4c0,0.1,0,0.1,0,0.2l-4.6,3.1c-11.2,7.6-22.4,15.7-33.3,24l-1.9,1.4
			l0,2.2c-0.5,28.4-1,57.6-1.6,89.2l-0.1,7.6l0,0l0,0.1l0,0l0,0.1l0,0l0,0.1l0,0l0,0.1l0,0l0,0.1l0,0l0,0.1l0,0l0,0.1l0,0l0,0.1l0,0
			l0,0.1l0,0l0,0.1l0,0l0,0.1l0,0l0,0.1l0,0l0,0.1l0,0l0,0.1l0,0l0,0.1l0,0l0,0.1l0,0l0,0.1l0,0l0,0.1l0,0l0,0.1l0,0l0,0.1l0,0
			l0,0.1l0,0l0,0.1l0,0l0,0.1l0,0l0,0.1l0,0l0,0.1l0,0l0,0.1l0,0l0,0.1l0,0l0,0.1l0,0l0,0.1l0,0l0,0.1l0,0l0,0.1l0,0l0,0.1l0,0
			l0,0.1l0,0l0,0.1l0,0l0,0.1l0,0l0,0.1l0,0v0.1l0,0l0,0.1l0,0l0,0.1l0,0l0,0.1l0,0l0,0.1l0,0l0,0.1l0,0l0,0.1l0,0l0,0.1l0,0l0,0.1
			l0,0l0,0.1l0,0l0,0.1l0,0l0,0.1l0,0l0,0.1l0,0l0,0.1l0,0l0,0.1l0,0l0,0.1l0,0l0,0.1l0,0l0,0.1l0,0l0,0.1l0,0l0,0.1l0,0l0,0.1l0,0
			l0,0.1l0,0l0,0.1l0,0l0,0.1l0,0l0,0.1l6.3-4.9c10.1-7.9,20.5-15.6,30.9-22.9l0.2-0.2c0,0.3,0,0.6,0,0.9l-0.2,7l0,0l0,0.1l0,0
			l0,0.1l0,0l0,0.1l0,0l0,0.1l0,0l0,0.1l0,0l0,0.1l0,0l0,0.1l0,0l0,0.1l0,0l0,0.1l0,0l0,0.1l0,0l0,0.1l0,0l0,0.1l0,0l0,0.1l0,0
			l0,0.1l0,0l0,0.1l0,0l0,0.1l0,0l0,0.1l0,0l0,0.1l0,0l0,0.1l0,0l0,0.1l0,0l0,0.1l0,0l0,0.1l0,0l0,0.1l0,0l0,0.1l0,0l0,0.1l0,0
			l0,0.1l0,0l0,0.1l0,0l0,0.1l0,0l0,0.1l0,0l0,0.1l0,0l0,0.1l0,0l0,0.1l0,0l0,0.1l0,0l0,0.1l0,0l0,0.1l0,0l0,0.1l0,0l0,0.1l0,0
			l0,0.1l0,0l0,0.1l0,0l0,0.1l0,0l0,0.1l0,0l0,0.1l0,0l0,0.1l0,0l0,0.1l0,0l0,0.1l0,0l0,0.1l0,0l0,0.1l0,0l0,0.1l0,0l0,0.1l0,0
			l0,0.1l0,0l0,0.1l0,0l0,0.1l0,0l0,0.1l0,0l0,0.1l0,0l0,0.1l0,0l0,0.1l0,0l0,0.1l0,0l0,0.1l0,0l0,0.1l0,0l0,0.1l0,0l0,0.1l6.1-4.2
			c4.6-3.1,9.1-6.2,13.6-9.2l0.1-0.1c2.6-1.7,4.4-4.7,4.6-7.6l0-0.6c0.2-7.5,0.2-7.3,0.2-7.3c2.1-1.4,20.8-12.9,25.4-15.5
			c0.2-0.1,0.4-0.2,0.5-0.3c2.6-1.6,4.4-4.5,4.6-7.4l0-0.5c0-0.5,0-1,0-1.5l1.5-1.4c2.3,1.8,5.5,2.3,9.5,1.3
			c2.4-0.6,5.2-1.7,8.4-3.4c3.7-1.9,5.6-2.8,9.4-4.7l0.4-0.2c3-1.6,5-4.7,5-7.9l0-0.4c1.8,1.2,4.7,2.2,9.2,1.1
			c3.2-0.8,6.4-2.4,9.1-4.2l0,0l0,0l0,0.1l0,0l0,0.1l0,0l0,0.1l0,0l0,0.1l0,0l0,0.1l0,0l0,0.1l0,0l0,0.1l0,0l0,0.1l0,0l0,0.1l0,0
			l0,0.1l5.2-2.1c4.6-1.9,9.3-3.7,14-5.5c0.1,0,0.2-0.1,0.3-0.1c0.6-0.2,1.2-0.6,1.7-1l4.6-1.5c3.7-1.2,5-1.6,8.2-2.7
			c9.8-3.3,18.4-5.9,26.4-8.1l0.2-0.1c3.1-0.9,5.5-3.8,5.8-7l0.4-15.9l0,0l0-0.1l0,0l0-0.1l0,0l0-0.1l0,0l0-0.1l0,0l0-0.1l0,0l0-0.1
			l0,0l0-0.1l0,0l0-0.1l0,0l0-0.1l0,0l0-0.1l0,0l0-0.1l0,0l0-0.1l0,0l0-0.1l0,0l0-0.1l0,0l0-0.1l0,0l0-0.1l0,0l0-0.1l0,0l0-0.1l0,0
			l0-0.1l0,0l0-0.1l0,0l0-0.1l0,0l0-0.1l0,0l0-0.1l0,0l0-0.1l0,0l0-0.1l0,0l0-0.1l0,0l0-0.1l0,0l0-0.1l0,0l0-0.1l0,0l0-0.1l0,0
			l0-0.1l0,0l0-0.1l0,0l0-0.1l0,0l0-0.1l0,0l0-0.1l0,0l0-0.1l0,0l0-0.1l0,0l0-0.1l0,0l0-0.1l0,0l0-0.1l0,0l0-0.1l0,0l0-0.1l0,0
			l0-0.1l0,0l0-0.1l0,0l0-0.1l0,0l0-0.1l0,0l0-0.1l0,0l0-0.1l0,0l0-0.1l0,0l0-0.1l0,0l0-0.1l0,0l0-0.1l0,0l0-0.1l0,0l0-0.1l0,0
			l0-0.1l0,0l0-0.1l0,0l0-0.1l0,0l0-0.1l0,0l0-0.1l0,0l0-0.1l0,0l0-0.1l-4.4,0.9c-2.7,0.6-5.4,1.1-8.2,1.8c4.9-14,10-28.5,15.2-43
			l0-0.1C243.5,17.7,243.7,16.1,243.5,14.5z"/>
		<path class="st1" d="M230.8,2.9l-0.1,0c-2.6,0.7-3.9,1-6.5,1.7c-7.2,2-14.6,4.2-22,6.7l-1.8,0.6l0-0.1l-5,1.8
			c-7.8,2.8-15.8,5.8-23.7,8.9c-6.6,2.6-11.6,6.3-15,11l0.1-4.7l-5.4,2.4c-4,1.8-8.1,3.7-12.2,5.7c-8.2,3.8-13.9,9.3-17,16.1
			l0.3-8.7l-5.7,3.1c-4,2.2-8.1,4.5-12.2,6.8l0.4-16.4l-5.8,3.4c-7.9,4.7-15.9,9.6-23.8,14.5c-3.2,2-5.8,5.5-7,9.4l-0.1,0.4
			c0,0.1,0,0.1,0,0.2l-4.6,3.1c-11.2,7.6-22.4,15.7-33.3,24l-1.9,1.4l0,2.2c-0.5,28.4-1,57.6-1.6,89.2l-0.1,7.6l6.3-4.9
			c10.1-7.9,20.5-15.6,30.9-22.9l0.6-0.5c0.4-0.3,0.8-0.7,1.1-1c0,2-0.1,4-0.1,6l-0.2,7l6.1-4.2c4.6-3.1,9.1-6.2,13.6-9.2l0.1-0.1
			c2.6-1.7,4.4-4.7,4.6-7.6l0-0.6c0.2-7.5,0.2-7.3,0.2-7.3c2.1-1.4,20.8-12.9,25.4-15.5c0.2-0.1,0.4-0.2,0.5-0.3
			c2.6-1.6,4.4-4.5,4.6-7.4l0-0.5c0-0.5,0-1,0-1.5l1.5-1.4c2.3,1.8,5.5,2.3,9.5,1.3c2.4-0.6,5.2-1.7,8.4-3.4
			c3.7-1.9,5.6-2.8,9.4-4.7l0.4-0.2c3-1.6,5-4.7,5-7.9l0-0.4c1.8,1.2,4.7,2.2,9.2,1.1c3.3-0.8,6.6-2.5,9.4-4.3l0,0.8l5.2-2.1
			c4.6-1.9,9.3-3.7,14-5.5c0.1,0,0.2-0.1,0.3-0.1c0.6-0.2,1.2-0.6,1.7-1l4.6-1.5c3.7-1.2,5-1.6,8.2-2.7c9.8-3.3,18.4-5.9,26.4-8.1
			l0.3-0.1c3.1-0.9,5.5-3.8,5.8-7l0.4-15.9l-4.4,0.9c-3.7,0.8-7.4,1.6-11.1,2.4c5.4-15.4,11-31.3,16.7-47.5l0-0.1
			c0.5-1.6,0.7-3.2,0.5-4.7C241.5,5,236.4,1.6,230.8,2.9z"/>
		<g>
			<path class="st2" d="M62.1,162.2c0.2-0.1,0.3-0.2,0.4-0.3c1.2-0.9,2-2.5,2.2-3.8c0-0.2,0-0.3,0-0.5c0.1-4.3,0.1-6.5,0.2-10.8
				c-6,3.9-11.9,7.9-17.8,12c0.2-7.3,0.3-14.7,0.5-22c4.8-3.8,9.7-7.6,14.6-11.3c0.1-4.3,0.2-8.6,0.3-12.9c-4.9,3-9.7,6.1-14.6,9.3
				c0.1-7.8,0.3-15.5,0.4-23.3c4.8-3.7,9.7-7.4,14.7-11c0.2-0.1,0.3-0.2,0.4-0.3c1.1-0.9,1.9-2.4,2.1-3.7c0-0.2,0-0.3,0-0.6
				c0.1-4.3,0.1-6.5,0.2-10.8C54.6,79.7,43.6,87.7,32.7,96c-0.5,29.7-1.1,59.5-1.6,89.2C41.3,177.2,51.6,169.6,62.1,162.2z"/>
			<path class="st2" d="M139.2,95.9c0.3-11.4,0.6-22.8,0.9-34.3c-0.3-5.7,5.2-9.5,9.8-11.7c0.1-0.1,0.3-0.1,0.4-0.2
				c1.3-0.7,2.2-2.2,2.2-3.6c0,0,0,0,0,0c0.1-4.4,0.2-6.6,0.3-11.1c-4,1.8-8.1,3.7-12.1,5.7c-10.6,5-16.7,12.8-17,24.1
				c-0.4,14.8-0.8,29.6-1.1,44.4v0c-0.6,12.1,6.3,11.7,16.2,6.4c3.8-1.9,5.7-2.9,9.6-4.7c0.1,0,0.1-0.1,0.2-0.1
				c1.4-0.7,2.4-2.3,2.4-3.8c0,0,0,0,0,0c0.1-4.3,0.2-6.5,0.3-10.8c0,0-2.3,0.9-7.3,3.1C139.4,101.3,139.2,98.8,139.2,95.9z"/>
			<path class="st2" d="M101.6,79.6c-0.4,19.2-0.9,38.4-1.3,57.5c4.6-2.8,9.2-5.5,13.9-8.1c0.1-0.1,0.2-0.1,0.3-0.2
				c1.3-0.8,2.2-2.3,2.3-3.7c0-0.1,0-0.2,0-0.3c0.4-18.2,0.9-36.3,1.3-54.5C112.5,73.3,107,76.4,101.6,79.6z"/>
			<path class="st2" d="M238.1,11.7c-0.4-3.5-3.5-5.7-6.9-4.8c-2.6,0.7-3.8,1-6.4,1.7c-7.3,2-14.5,4.2-21.8,6.6
				c-0.1,3.8-0.1,5.7-0.2,9.5c0,0.1,0,0.2,0,0.3c0,0.1,0,0.2,0,0.3c0.2,1.7,1.7,2.8,3.5,2.5c0,0,0,0,0,0c0.1,0,0.2-0.1,0.4-0.1
				c4.2-1.1,8.3-2.1,12.5-3.1c-6.4,18.3-12.7,36.6-19,54.9c-0.3,1-2.8,9.3-2.7,10.3c4.6-1.5,5.8-1.9,9.2-3.1
				c8.8-2.9,17.7-5.7,26.6-8.2c0.1,0,0.1,0,0.1,0c1.3-0.4,2.3-1.6,2.4-2.9c0-0.2,0-0.3,0-0.5c0.1-4.3,0.1-6.4,0.2-10.7
				c-5.8,1.2-11.6,2.5-17.4,3.9c6.3-18,12.6-35.9,19-53.9C238.1,13.7,238.2,12.7,238.1,11.7z"/>
			<path class="st2" d="M97,76.5c-3.7,1.9-5.6,2.9-9.3,4.9c0.1-5.2,0.2-10.3,0.3-15.5c4-2.6,6-3.9,10.1-6.5c0.2-0.1,0.3-0.2,0.6-0.4
				c1.1-0.8,1.9-2.2,2.1-3.5c0-0.2,0-0.3,0-0.5c0.1-4.2,0.2-6.2,0.3-10.4c-7.9,4.7-15.8,9.5-23.6,14.4c-2.3,1.5-4.2,4.1-5,6.7
				c0,0.1,0,0.2-0.1,0.3c-0.2,0.6-0.3,1.2-0.3,1.8c0,0.2,0,0.3,0,0.5c0,0.1,0,0.2,0,0.3c-0.2,7.8-0.3,15.6-0.5,23.3
				c-1.6,1.2-2.4,1.8-4,2.9c-0.1,4.3-0.2,8.6-0.3,12.9c1.6-1,2.4-1.4,4-2.4c-0.5,21.3-1,42.6-1.4,64c4.6-3.1,9.2-6.2,13.8-9.3
				c0,0,0,0,0,0c1.3-0.9,2.3-2.5,2.4-4c0-0.1,0-0.2,0-0.4c0.5-20.1,1-40.2,1.4-60.3c3.7-2.5,5.6-3.8,9.3-6.2
				C96.8,85,96.9,80.7,97,76.5z"/>
			<path class="st2" d="M172.8,26.4c-10.7,4.1-16.8,11.5-17.1,22.7c-0.4,14.7-0.8,29.3-1.2,44c0,0,0,0,0,0
				c-0.9,17.4,14.3,9.6,23.2,1.8c0,1.1,0,1.7-0.1,2.9c4.7-1.9,9.4-3.8,14.2-5.6c0.1,0,0.1,0,0.2-0.1c1.3-0.5,2.3-1.8,2.4-3.2
				c0-0.2,0-0.3,0-0.5c0.6-23.7,1.3-47.3,1.9-71C188.4,20.3,180.6,23.3,172.8,26.4z M178,82.9c0,0-6.9,4.8-6.7-2
				c0.3-11.3,0.6-22.6,0.9-33.9c0.1-3.3,0.6-6.2,7-9.5C178.9,52.7,178.4,67.8,178,82.9z"/>
		</g>
		<g>
			<g>
				<path class="st3" d="M117.9,69.2c0.2-6.1,0.4-12.2,0.5-18.2c-5.5,3-11,6.1-16.5,9.2C107.3,63.2,112.6,66.2,117.9,69.2z"/>
			</g>
		</g>
	</g>
	<g>
		<g>
			<path class="st2" d="M245,79.9c0.2-0.5,0.5-0.9,0.9-1.3c0.4-0.4,0.8-0.6,1.4-0.8c0.5-0.2,1.1-0.3,1.6-0.3c0.6,0,1.1,0.1,1.6,0.3
				c0.5,0.2,1,0.5,1.4,0.8c0.4,0.4,0.7,0.8,0.9,1.3c0.2,0.5,0.4,1.1,0.4,1.7c0,0.6-0.1,1.2-0.4,1.7c-0.2,0.5-0.5,1-0.9,1.3
				c-0.4,0.4-0.8,0.6-1.4,0.8c-0.5,0.2-1.1,0.3-1.6,0.3c-0.6,0-1.1-0.1-1.6-0.3c-0.5-0.2-1-0.5-1.4-0.8c-0.4-0.4-0.7-0.8-0.9-1.3
				c-0.2-0.5-0.4-1.1-0.4-1.7C244.7,81,244.8,80.4,245,79.9z M246.1,82.9c0.2,0.4,0.4,0.7,0.7,1c0.3,0.3,0.6,0.5,1,0.7
				c0.4,0.2,0.8,0.2,1.2,0.2c0.4,0,0.8-0.1,1.2-0.2c0.4-0.2,0.7-0.4,1-0.7c0.3-0.3,0.5-0.6,0.7-1c0.2-0.4,0.3-0.8,0.3-1.3
				c0-0.5-0.1-0.9-0.3-1.3c-0.2-0.4-0.4-0.7-0.7-1c-0.3-0.3-0.6-0.5-1-0.7c-0.4-0.2-0.8-0.2-1.2-0.2c-0.4,0-0.8,0.1-1.2,0.2
				c-0.4,0.2-0.7,0.4-1,0.7c-0.3,0.3-0.5,0.6-0.7,1c-0.2,0.4-0.2,0.8-0.2,1.3C245.8,82.1,245.9,82.5,246.1,82.9z M249.1,79.2
				c0.6,0,1,0.1,1.4,0.3c0.3,0.2,0.5,0.6,0.5,1.1c0,0.2,0,0.4-0.1,0.6c-0.1,0.2-0.2,0.3-0.3,0.4c-0.1,0.1-0.2,0.2-0.4,0.2
				c-0.1,0.1-0.3,0.1-0.5,0.1l1.2,2h-1l-1.1-2h-0.6v2h-0.9v-4.7H249.1z M249,81.2c0.3,0,0.5,0,0.7-0.1c0.2-0.1,0.3-0.3,0.3-0.5
				c0-0.1,0-0.2-0.1-0.3c-0.1-0.1-0.1-0.1-0.2-0.2c-0.1,0-0.2-0.1-0.3-0.1c-0.1,0-0.2,0-0.3,0h-0.8v1.2H249z"/>
		</g>
	</g>
</g>
</svg>
