<?xml version="1.0" encoding="utf-8"?>
<!-- Generator: Adobe Illustrator 21.0.2, SVG Export Plug-In . SVG Version: 6.00 Build 0)  -->
<svg version="1.1" id="Capa_1" xmlns="http://www.w3.org/2000/svg" xmlns:xlink="http://www.w3.org/1999/xlink" x="0px" y="0px"
	 viewBox="0 0 280.2 199.7" style="enable-background:new 0 0 280.2 199.7;" xml:space="preserve">
<style type="text/css">
	.st0{fill:#D70036;}
</style>
<g>
	<path class="st0" d="M240.1,55.7c-13.8,2.5-25.3,23-25.3,23S226.8,45,239.4,26c1.4-2.1,0.1-5-2.5-5.2c-7.6-0.7-16.8,3.7-24,19.8
		c-12.1,27.3-23.2,59.9-21.4,69.8c1,5.6,4.5,8,7.8,9c3,0.9,6-1,6.6-4.1c1-4.9,3.4-13.9,9.6-27.4c9.9-21.8,20.3-23.5,16.4-10.4
		c-3.9,13.1-6.2,21.8-5,28.6c0.9,4.7,3.9,9.5,8.8,11.4c3.4,1.3,7-1.1,7.2-4.7c0.2-4.3,1.1-11.3,3.7-20.8
		C251.7,74.4,255.7,52.9,240.1,55.7z"/>
	<path class="st0" d="M150.7,78.1c0.5-1.5-0.3-3.1-1.8-3.6c-31-9.7-64.3,29.2-60.5,53.9c3.7,22.2,28.7,5.8,36.3-12.7
		c1.5,14.4,8.4,17.6,14.8,18.2c2,0.2,3.6-1.5,3.3-3.5C142,123.5,141.5,106,150.7,78.1z M108.2,118.2c-1.5-8.1,6.5-36.5,28.1-38.6
		C118.2,125.8,109.3,124,108.2,118.2z"/>
	<path class="st0" d="M183.7,63.8c-13.8,2.5-28.7,14.3-26.4,26.8c1.8,10.1,8.5,11.6,10.1,20.5c1.7,9.1-8.7,13.9-13.7,7.9
		c-1-1.2-2.8-1.2-3.9-0.1c-1.1,1.2-2,2.8-1.7,4.9c0.5,3,3.6,6.4,12.3,4.8c17.5-3.2,25.4-16.1,23.9-24.4c-1.5-8.5-8-12.4-9.5-20.7
		c-0.8-4.4,1.4-11.2,7.5-12.3c3.4-0.6,5.7,0.8,7.1,2.2c1.2,1.2,3.1,1.3,4.2,0.1C198,69.1,194.2,61.9,183.7,63.8z"/>
	<path class="st0" d="M110.5,48.6c1.1-1.6,0.2-3.9-1.8-4.2c-5.1-0.8-14.1,0.1-21.2,12.6c-13.5,23.7-23.3,54.3-22,75
		c0.6,9.2,7.8,12.3,12.4,13.4c1.8,0.4,3.5-1.1,3.3-2.9C77.2,99.3,102.6,59.7,110.5,48.6z"/>
	<path class="st0" d="M61.7,89c-3.1,0.6-7.6,1.4-12.4,2.2c-0.6,0.1-1.1-0.5-0.9-1.1C54.9,69.7,63,59.6,69.5,58.4
		c0.9-0.2,1.7-0.2,2.4-0.1c4.7,0.6,6-6.4,1.3-7.3c-1.4-0.3-3-0.3-4.6-0.1C54.8,52.5,39.3,61,29.5,94.2c-0.1,0.3-0.3,0.5-0.7,0.6
		c-1.7,0.3-3,0.5-3.9,0.7c-3.7,0.7-5.7,2.1-6.8,3.7c-1.4,1.9,0.3,4.6,2.7,4.2c1.5-0.3,3.3-0.6,5.3-0.9c0.6-0.1,1.1,0.4,1,1
		c-8.4,33.1-10.6,54-8.3,66.9c0.3,1.9,0.8,3.5,1.3,4.9c1.9,5.3,9.6,4.6,10.5-1c2.4-15.6,7.6-45.9,15.2-75c0.1-0.3,0.3-0.6,0.7-0.6
		c5.5-1,10.1-1.8,11.8-2.1c3.2-0.6,5.1-1.8,6.2-3.1C66,91.6,64.3,88.5,61.7,89z"/>
	<g>
		<path class="st0" d="M259.5,57.1L259.5,57.1c0.4-0.2,0.9-0.6,0.9-1.2c0-0.4-0.2-0.8-0.4-1c-0.3-0.3-0.8-0.4-1.6-0.4
			c-0.6,0-1.1,0-1.4,0.1l0,4.7l1.1,0l0-1.9l0.3,0c0.4,0,0.7,0.2,0.8,0.8c0.1,0.6,0.3,1,0.3,1.1l1.1,0c-0.1-0.2-0.2-0.8-0.4-1.3
			C260,57.6,259.9,57.3,259.5,57.1z M258.4,56.7l-0.4,0l0-1.3c0.1,0,0.2,0,0.5,0c0.5,0,0.8,0.2,0.8,0.7
			C259.3,56.4,259,56.7,258.4,56.7z"/>
		<path class="st0" d="M258.6,52.8c-2.4,0-4.3,1.9-4.3,4.3c0,2.3,1.9,4.3,4.3,4.3s4.3-1.9,4.3-4.3C262.8,54.7,260.9,52.8,258.6,52.8
			z M258.6,60.6c-1.9,0-3.5-1.6-3.5-3.5c0-1.9,1.6-3.5,3.5-3.5s3.5,1.6,3.5,3.5C262.1,59,260.5,60.6,258.6,60.6z"/>
	</g>
</g>
</svg>
