<?xml version="1.0" encoding="utf-8"?>
<!-- Generator: Adobe Illustrator 21.0.2, SVG Export Plug-In . SVG Version: 6.00 Build 0)  -->
<svg version="1.1" id="Capa_1" xmlns="http://www.w3.org/2000/svg" xmlns:xlink="http://www.w3.org/1999/xlink" x="0px" y="0px"
	 viewBox="0 0 280.2 199.7" style="enable-background:new 0 0 280.2 199.7;" xml:space="preserve">
<style type="text/css">
	.st0{fill:#FFFFFF;}
	.st1{fill:#C3002F;}
</style>
<g>
	<path class="st0" d="M275,142.8l-8-35.4c0.4,0.1,0.8,0.1,1.2,0.1c3.9,0,7.1-3.2,7.1-7.1s-3.2-7.1-7.1-7.1c-0.5,0-1,0-1.4,0.1
		L275,57c0-0.1,0.1-0.2,0.1-0.4c0.7-4-0.7-6.6-1.9-8.1c-2.7-3.2-6.5-3.2-8.1-3.2h-5c-3.1,0-5.5,0.9-7.2,2.7
		c-1.7-1.8-4.1-2.7-7.2-2.7h-6.1c-1.9,0-3.6,0.4-5.1,1.2c-1.3-0.8-2.8-1.2-4.3-1.2H209c-4,0-8.3,3-8.9,8.6c-0.7-5.6-4.9-8.6-8.9-8.6
		h-8.6c-4.4,0-9,3.6-9,10.1v1.9l-0.3-2.7c0-0.1,0-0.2,0-0.3c-0.4-2.2-1.5-9-8.9-9h-10c-3,0-8.2,1.2-9.5,9c0,0.1,0,0.2,0,0.3
		l-1.1,9.6c-4.2-16.1-14.3-18.9-20.9-18.9h-13.3c-2.8,0-5.8,1.5-7.5,4.3c-3.5-2.8-8.1-4.3-13.6-4.3c-15.4,0-22.3,11.8-22.3,23.5
		V55.5c0-6.6-4.7-10.1-9-10.1h-8.6c-2.8,0-5.8,1.5-7.5,4.3c-3.5-2.8-8.1-4.3-13.6-4.3c-15.4,0-22.3,11.8-22.3,23.5V131
		c0,11.7,6.9,23.5,22.3,23.5c5.5,0,10.1-1.5,13.6-4.3c1.7,2.8,4.7,4.3,7.5,4.3h20c2.6,0,5.3-1.3,7.1-3.7c3.4,2.3,7.6,3.7,12.9,3.7
		c5.5,0,10.1-1.5,13.6-4.3c1.7,2.8,4.7,4.3,7.5,4.3h7.8c1.8,0,3.6-0.6,5.2-1.8c1.6,1.1,3.6,1.8,5.9,1.8h6.7c1.8,0,3.3-0.3,4.5-0.8
		c1.9,0.8,3.8,0.8,4.9,0.8h5.5c4.5,0,7.6-1.9,9.1-5.7c1.5,3.9,4.4,5.7,9.2,5.7h6.1c1.6,0,3.1-0.3,4.4-1c1.2,0.6,2.6,1,3.9,1h20
		c1.3,0,2.7-0.3,3.9-1c1.2,0.6,2.6,1,3.9,1h21.1c1.3,0,2.6-0.3,3.8-0.9c1.4,0.6,2.9,0.9,4.4,0.9h6.1c3.1,0,5.5-0.9,7.2-2.7
		c1.7,1.8,4.1,2.7,7.2,2.7h5.6c3,0,5.6-1.2,7.4-3.3c2.7-3.2,2.3-6.9,2.1-8C275.1,143,275.1,142.9,275,142.8z"/>
	<g>
		<path class="st1" d="M29.3,83.3c0,2.2,1.1,3.3,2.2,3.3h7.8c1.1,0,2.2-1.1,2.2-3.3V68.8c0-5.5-1.1-16.6-14.4-16.6
			S11.6,63.3,11.6,68.8V131c0,5.5,2.2,16.6,15.5,16.6s14.4-11.1,14.4-16.6v-14.4c0-2.2-1.1-3.3-2.2-3.3h-7.8c-1.1,0-2.2,1.1-2.2,3.3
			v11.7c0,0,0,1.7-0.6,2.8c0,0-0.6,1.1-1.7,1.1s-1.7-1.1-1.7-1.1c-0.6-1.1-0.6-2.8-0.6-2.8v-45V71.6c0,0,0-1.7,0.6-2.8
			c0,0,0.6-1.1,1.7-1.1s1.7,1.1,1.7,1.1c0.6,1.1,0.6,2.8,0.6,2.8V83.3z"/>
		<path class="st1" d="M48.1,52.2c-1.1,0-2.2,1.1-2.2,3.3v88.8c0,2.2,1.1,3.3,2.2,3.3h20c1.1,0,2.2-1.1,2.2-3.3v-5.5
			c0-2.2-1.1-3.3-2.2-3.3h-10v-80c0-2.2-1.1-3.3-2.2-3.3H48.1z"/>
		<path class="st1" d="M182.4,52.2c-1.1,0-2.2,1.1-2.2,3.3v88.8c0,2.2,1.1,3.3,2.2,3.3h20c1.1,0,2.2-1.1,2.2-3.3v-5.5
			c0-2.2-1.1-3.3-2.2-3.3h-10v-80c0-2.2-1.1-3.3-2.2-3.3H182.4z"/>
		<path class="st1" d="M72.5,68.8V131c0,5.5,2.2,16.6,15.5,16.6s14.4-11.1,14.4-16.6V68.8c0-5.5-1.1-16.6-14.4-16.6
			C74.8,52.2,72.5,63.3,72.5,68.8z M85.9,125.4V75.5c0-7.8,1.1-7.8,2.2-7.8s2.2,0,2.2,7.8v49.9c0,6.7-1.1,6.7-2.2,6.7
			S85.9,132.1,85.9,125.4z"/>
		<path class="st1" d="M109.2,52.2c-1.1,0-2.2,1.1-2.2,3.3v88.8c0,2.2,1.1,3.3,2.2,3.3h7.8c1,0,2.2-1.1,2.2-3.3c0,0,0-35.1,0-37.7
			h0.6l5,37.7c0,0,0,3.3,3.3,3.3h6.7c4.4,0,3.3-3.3,3.3-3.3c0-0.1,0,0.1,0,0l-6.7-41.6c5.6-3.9,7.2-12.2,7.2-20.5
			c0-27.2-10.5-30-16.1-30C122.5,52.2,109.2,52.2,109.2,52.2z M120.8,67.7c2.2,0,5.5,0,5.5,14.4c0,11.7-2.8,14.4-6.7,14.4V67.7
			H120.8z"/>
		<path class="st1" d="M154.1,52.2c-1.1,0-2.2,0-2.8,3.3l-10.5,88.8l0,0c-0.6,3.3,1.7,3.3,3.3,3.3h5.5c1.7,0,2.8,0,3.3-3.3l2.8-20.5
			h5.5l3.3,20.5c0.6,3.3,1.1,3.3,3.3,3.3h6.1l0,0c3.3,0,2.8-3.3,2.8-3.3l-10.5-88.8c-0.6-3.3-1.1-3.3-2.2-3.3H154.1z M159.1,73.8
			l2.2,39.9h-5.5L159.1,73.8z"/>
		<path class="st1" d="M210.1,52.2c-1.1,0-2.2,1.1-2.2,3.3v88.8c0,2.2,1.1,3.3,2.2,3.3h21.1c1.1,0,2.2-1.1,2.2-3.3v-5.5
			c0-2.2-1.1-3.3-2.2-3.3h-10v-30h6.7c1.1,0,2.2-1.1,2.2-3.3v-4.4c0-2.2-1.1-3.3-2.2-3.3h-6.7V63.3h8.9c1.1,0,2.2-1.1,2.2-3.3v-4.4
			c0-2.2-1.1-3.3-2.2-3.3L210.1,52.2L210.1,52.2z"/>
		<path class="st1" d="M260,52.2c-1.7,0-2.8,0-3.3,3.3l-3.9,26.1l-3.9-26.1c-0.6-3.3-1.7-3.3-3.3-3.3h-6.1c-3.9,0-3.3,3.3-3.3,3.3
			l0,0l10,44.4l-10,44.4c-0.6,2.2,1.7,3.3,3.3,3.3l0,0h6.1c1.7,0,2.8,0,3.3-3.3l3.9-26.1l3.9,26.1c0.6,3.3,1.7,3.3,3.3,3.3h5h0.6
			c3.3,0,2.8-3.3,2.8-3.3l-10-44.4l10-44.4l0,0c0.6-3.3-1.7-3.3-3.3-3.3H260z"/>
		<g>
			<path class="st1" d="M272.8,100.4c0,3.1-1.8,4.5-4.5,4.5c-2.8,0-4.5-1.5-4.5-4.5c0-3.1,1.8-4.5,4.5-4.5
				C271,95.8,272.8,97.3,272.8,100.4z M264.9,100.4c0,2.4,1.2,3.5,3.4,3.5l0,0c2.2,0,3.4-1.2,3.4-3.5c0-2.4-1.2-3.5-3.4-3.5
				C266.1,96.8,264.9,98,264.9,100.4z M266.4,97.9h1.9c1.4,0,1.8,0.5,1.8,1.4c0,0.8-0.2,1.2-1,1.4l1.2,2.1h-1.1l-1.1-2h-0.8v2h-1
				v-4.9H266.4z M267.4,100h0.8c0.7,0,1,0,1-0.6c0-0.5-0.3-0.6-0.9-0.6h-0.9V100z"/>
		</g>
	</g>
</g>
</svg>
