<?xml version="1.0" encoding="utf-8"?>
<!-- Generator: Adobe Illustrator 21.0.2, SVG Export Plug-In . SVG Version: 6.00 Build 0)  -->
<svg version="1.1" id="Capa_1" xmlns="http://www.w3.org/2000/svg" xmlns:xlink="http://www.w3.org/1999/xlink" x="0px" y="0px"
	 viewBox="0 0 280.2 199.7" style="enable-background:new 0 0 280.2 199.7;" xml:space="preserve">
<style type="text/css">
	.st0{fill:#FFFFFF;}
	.st1{fill:#CF0A2C;}
	.st2{fill:url(#SVGID_1_);}
	.st3{fill:url(#SVGID_2_);}
	.st4{fill:url(#SVGID_3_);}
	.st5{fill:url(#SVGID_4_);}
	.st6{fill:url(#SVGID_5_);}
	.st7{fill:url(#SVGID_6_);}
</style>
<g>
	<path d="M11.2,125.3l-7.9,22.9c0,0-1.7,7.7,6.4,5.6c8.1-2.1,47.7-12.9,56.2-31.6c0,0,7.6,8.7,20.7,7.8c13.1-0.9,22.9-2.7,22.9-2.7
		s2.2-0.3,2.9-1.7c0,0,1.5,0.7,4,0.7c2.5,0,22.2-1.8,28.2-1.8c0,0,2.7-0.2,3.4-1.7c0,0,1.2,1.9,4.1,1.9c2.9,0,18.6,0.4,18.6,0.4
		s1.5,0,2.9-1.4c0,0,1.5,1.7,3.7,1.7c2.2,0,17.3,1.1,17.3,1.1l3.8,0.2l3.3,0.4c2.3,0,18.4,2.7,18.4,2.7s1.6,0.7,2,0.2
		c0,0,1,0.4,1.9,0.4c0.9,0,17.9,4.3,17.9,4.3l4.1,1c0,0,0.9,0.1,3.5,0.7c2.6,0.6,15.7,4.4,15.7,4.4s3.5,0.9,5-0.6
		c1.5-1.5,1-5.4,1-5.4s-0.8-16.8,0.1-29.5c0.9-12.7,3.9-24.5,5-26.3c1-1.8,1.5-6.5-5.1-7.1c-6.6-0.6-19.6,0.6-24.7,2.9
		c0,0-2.6,1.5-1.8,4l-2-2.7c0,0-1.4-1.9-4.2-2.5c-2.8-0.6-12.8-2.6-12.8-2.6s-7.1-1.6-5.4,7.5c1.8,9.1,0.7,33.5,0.7,33.5L212,72.8
		c0,0-0.1-1.7-0.7-2.3c0,0,1.4-0.8,2.1-2.5c0.6-1.7,3.4-7.6,3.4-7.6s1.8-5.5-2.7-6.4c-4.4-0.9-13.5-1.9-13.5-1.9s-3.9-0.3-4.6,3.3
		c-0.7,3.7-2.6,11.2-2.6,11.2l-3.7-0.3c0,0-3.8,0-4.4,4.8c-0.6,4.8-4.2,16.3-4.2,16.3l-0.6-17.6c0,0,0.1-4.6-5.5-4.6
		c-5.6,0-26.2-1-32.2,0c0,0-4.6,0-4.2,7.2c0.4,7.2,0.5,9.9,0.5,9.9s0.6,4.3,5.2,3.8l3.7-0.4l0.3,12.8c0,0-1.4-3.4-5.5-2.6
		c-4.2,0.8-6.6,1.3-6.6,1.3L136,71.1c0,0,1.7-5.7-5.2-5l-17.5,0.8c0,0-2.2,0.1-2.9,1.7c0,0-1.5-1.4-4.8-0.8L65.9,75
		c0,0-1.1,0.5-1.1,1.3l-0.2-10.1c0,0,0.1-4.4-5.5-3.7c-5.6,0.7-25.5,3.6-39.5,20.4c-14,16.8-2.8,31.5,7.8,34.7c0,0,0.7,1.1-1.6,1.1
		c-2.4,0-8.1,0.7-8.1,0.7S13.4,120.2,11.2,125.3z"/>
	<path class="st0" d="M13.1,118.2l-7.7,22.7c0,0-1.7,7.6,6.3,5.6c8-2,46.8-12.8,55.2-31.4c0,0,7.5,8.6,20.3,7.7
		c12.8-0.9,22.5-2.7,22.5-2.7s2.2-0.3,2.8-1.7c0,0,1.5,0.7,3.9,0.7c2.4,0,21.8-1.8,27.7-1.8c0,0,2.6-0.2,3.3-1.7c0,0,1.2,1.9,4,1.9
		c2.8,0,18.3,0.4,18.3,0.4s1.5,0,2.8-1.3c0,0,1.5,1.7,3.6,1.7c2.1,0,16.9,1.1,16.9,1.1s2.5,0.3,3.7-1.6c0,0,0.9,2.2,3.2,2.2
		c2.3,0,18.1,2.7,18.1,2.7s1.9,0.1,2.4-0.4c0,0,0.6,0.9,1.5,0.9c0.9,0,17.6,4.2,17.6,4.2s3.4,0.6,4.3-1.6c0,0,0.6,2.7,3.2,3.2
		c2.5,0.6,15.5,4.3,15.5,4.3s3.4,0.9,4.9-0.6c1.5-1.5,0.9-5.4,0.9-5.4s-0.8-16.7,0.1-29.3c0.9-12.6,3.8-24.3,4.9-26.1
		c1-1.8,1.5-6.5-5-7.1c-6.5-0.6-19.2,0.6-24.3,2.9c0,0-2.5,1.5-1.8,3.9l-2-2.7c0,0-1.3-1.9-4.1-2.5c-2.8-0.6-12.5-2.6-12.5-2.6
		s-7-1.6-5.3,7.5c1.7,9.1,1.7,33.3,1.7,33.3l-8.7-38.9c0,0-0.6-2.2-1.3-2.8c0,0,0.9-0.2,1.5-2c0.6-1.7,3.3-7.6,3.3-7.6
		s1.7-5.4-2.6-6.3c-4.3-0.9-13.2-1.9-13.2-1.9s-3.8-0.3-4.5,3.3c-0.7,3.6-2.6,11.1-2.6,11.1l-3.6-0.3c0,0-3.7,0-4.3,4.7
		c-0.6,4.7-2.6,16.2-2.6,16.2l-0.6-17.4c0,0,0.1-4.6-5.4-4.6c-5.5,0-27.3-1-33.1,0c0,0-4.5,0-4.1,7.2c0.4,7.2,0.5,16.6,0.5,16.6
		s0.6,4.3,5.1,3.8l3.6-0.4l0.3,5.9c0,0-1.3-3.4-5.4-2.6c-4.1,0.8-5.5,0.9-5.5,0.9l-0.1-26c0,0,1.1-5.6-5.7-5l-17.7,1.2
		c0,0-2.1,0.1-2.8,1.7c0,0-1.5-1.4-4.7-0.8l-38.9,7.2c0,0-1.1,0.5-1.1,1.3l-0.2-10c0,0,0.1-4.3-5.4-3.6c-5.5,0.7-25.1,3.5-38.8,20.3
		c-13.7,16.7-3.6,30.6,6.8,33.8c0,0,0.8,0.8-1.3,1c-2.6,0.3-7.4,1.3-7.4,1.3S15.3,113.1,13.1,118.2z"/>
	<g>
		<path d="M86.6,119.2c6.4-1.1,16.1-1.9,22.4-2.7c-2.2-16.8-1.9-34-0.7-51c-6.2,0.7-12.5,1.6-18.7,2.6c0.9,10.5,1.1,21,0.4,31.5
			c0,0-3.2,0.7-3.5-1.4c-1.3-8.9-0.8-20.8,1.5-29.9c-6.6,1.2-13.2,2.5-19.7,3.9c0,0,3.1,34.1,1.7,40.6
			C70,112.9,75.2,118.8,86.6,119.2z M132.6,95.5c-0.1-10.6-0.3-21.3,0.6-32c-6.5,0.3-13,0.8-19.4,1.4c1.8,16.9,2.2,34.1,0.8,51
			c9.9-1,19.8-1.6,29.7-1.9c-0.1-6.8-0.2-13.7-0.3-20.5C140.1,94.2,136.3,94.8,132.6,95.5z M52,88.8c-2.4-0.4-8.4-1.7-8.4-3.4
			c0-1.3,3.9-2.6,5.8-3.1c4-1.1,8.4-1,12.5-1l-0.3-21.7c-4,0.8-8,1.5-11.8,2.7c-13.7,4.3-30.1,15.4-30.3,31.4
			c-0.1,7.1,7,11.6,12.9,13.5c0,0,2.2,0.7,4.2,1.5c1.4,0.6,1.6,1.4,1.6,1.9c0,0.7-0.4,1.3-1.9,2c-1.7,0.7-3.6,1.3-4.1,1.5
			c-4.5,1.4-12.5,1.8-13.7,3c-2.5,2.5-9.1,25.5-9.1,25.5c0.2,0.2,9.8-3.2,14.5-4.8C40,132.5,65.2,123.7,66,103
			C66.2,95,59.1,90,52,88.8z M211.5,52.4c-4.3-0.7-8.5-1.3-12.8-1.8c-0.9,3.6-1.8,7.2-2.7,10.8c3.6,0.4,7.1,0.9,10.6,1.4
			C208.2,59.4,209.8,55.9,211.5,52.4z M168.3,82.7c3,0.4,5.9,0.8,8.9,1.2c-0.1-6.8-0.2-13.6-0.3-20.4c-11.4-0.6-22.9-0.8-34.3-0.4
			c0.1,6.6,0.2,13.2,0.3,19.8c2.7-0.2,5.5-0.5,8.2-0.6c1.4,10.4,0.1,21.6-0.6,32.1c6.4,0,12.9,0.1,19.3,0.3
			C168.6,104.2,168.1,93.4,168.3,82.7z M188,64.6c-1.8,17.1-5.8,34.7-13.4,50.4c6.3,0.4,12.5,0.9,18.8,1.5c0.8-3.7,1.6-7.3,2.4-11
			c1.2,0.1,1.8,0.2,3,0.4c0.4,3.8,0.7,7.6,1.1,11.4c6.3,0.8,12.6,1.8,18.9,2.9c-4.5-17.6-8.4-35.3-11.8-53.2
			C200.8,66,194.4,65.2,188,64.6z M195.3,93.1c0.5-2.2,0.8-11.8,1.3-14c0.6,2.4,2.1,12,2.7,14.3C198,93.3,196.6,93.2,195.3,93.1z"/>
		<path d="M222,69.3c0,0,3.8,32.5,0.7,51.6c0,0,16.3,3.3,17.9,3.8c0,0,0.5-10.2,0.3-11.7l6.8,13.5c0,0,15.2,4.4,16.4,4.7
			c0,0-2.6-42.7,5.8-60.1c0,0-10.2-2.3-24.1,2c0,0-0.3,12.7-0.1,15.6l-9.3-16.5L222,69.3z"/>
	</g>
	<g>
		<path class="st1" d="M86.6,115.6c6.4-1.1,16.1-1.9,22.4-2.7c-2.2-16.8-1.9-34-0.7-51c-6.2,0.7-12.5,1.6-18.7,2.6
			c0.9,10.5,1.1,21,0.4,31.5c0,0-3.2,0.7-3.5-1.4C85.3,85.8,85.7,74,88,64.9c-6.6,1.2-13.2,2.5-19.7,3.9c0,0,3.1,34.1,1.7,40.6
			C70,109.4,75.2,115.3,86.6,115.6z M132.6,91.9c-0.1-10.6-0.3-21.3,0.6-32c-6.5,0.3-13,0.8-19.4,1.4c1.8,16.9,2.2,34.1,0.8,51
			c9.9-1,19.8-1.6,29.7-1.9c-0.1-6.8-0.2-13.7-0.3-20.5C140.1,90.6,136.3,91.2,132.6,91.9z M52,85.3c-2.4-0.4-8.4-1.7-8.4-3.4
			c0-1.3,3.9-2.6,5.8-3.1c4-1.1,8.4-1,12.5-1l-0.3-21.7c-4,0.8-8,1.5-11.8,2.7c-13.7,4.3-30.1,15.4-30.3,31.4
			c-0.1,7.1,7,11.6,12.9,13.5c0,0,2.2,0.7,4.2,1.5c1.4,0.6,1.6,1.4,1.6,1.9c0,0.7-0.4,1.3-1.9,2c-1.7,0.7-3.6,1.3-4.1,1.5
			c-4.5,1.4-12.5,1.8-13.7,3c-2.5,2.5-9.1,25.5-9.1,25.5c0.2,0.2,9.8-3.2,14.5-4.8C40,128.9,65.2,120.1,66,99.4
			C66.2,91.5,59.1,86.4,52,85.3z M211.5,48.9c-4.3-0.7-8.5-1.3-12.8-1.8c-0.9,3.6-1.8,7.2-2.7,10.8c3.6,0.4,7.1,0.9,10.6,1.4
			C208.2,55.8,209.8,52.3,211.5,48.9z M168.3,79.2c3,0.4,5.9,0.8,8.9,1.2c-0.1-6.8-0.2-13.6-0.3-20.4c-11.4-0.6-22.9-0.8-34.3-0.4
			c0.1,6.6,0.2,13.2,0.3,19.8c2.7-0.2,5.5-0.5,8.2-0.6c1.4,10.4,0.1,21.6-0.6,32.1c6.4,0,12.9,0.1,19.3,0.3
			C168.6,100.6,168.1,89.9,168.3,79.2z M188,61c-1.8,17.1-5.8,34.7-13.4,50.4c6.3,0.4,12.5,0.9,18.8,1.5c0.8-3.7,1.6-7.3,2.4-11
			c1.2,0.1,1.8,0.2,3,0.4c0.4,3.8,0.7,7.6,1.1,11.4c6.3,0.8,12.6,1.8,18.9,2.9c-4.5-17.6-8.4-35.3-11.8-53.2
			C200.8,62.4,194.4,61.6,188,61z M196.1,89.5c0.5-2.2,0.9-8.5,1.4-10.7c0.6,2.4,1.2,8.7,1.8,11C198,89.7,197.3,89.7,196.1,89.5z"/>
		<path class="st1" d="M222,65.7c0,0,3.8,32.5,0.7,51.6c0,0,16.3,3.3,17.9,3.8c0,0,0.5-10.2,0.3-11.7l6.8,13.5
			c0,0,15.2,4.4,16.4,4.7c0,0-2.6-42.7,5.8-60.1c0,0-10.2-2.3-24.1,2c0,0-0.3,12.7-0.1,15.6l-9.3-16.5L222,65.7z"/>
	</g>
	<linearGradient id="SVGID_1_" gradientUnits="userSpaceOnUse" x1="39.0687" y1="88.1274" x2="39.0687" y2="134.1417">
		<stop  offset="0.2209" style="stop-color:#FFFFFF"/>
		<stop  offset="0.6871" style="stop-color:#B2B2B2"/>
		<stop  offset="0.7301" style="stop-color:#B2B2B2"/>
	</linearGradient>
	<path class="st2" d="M19.3,114.5c0,0-2.4,8.6-5.4,18.1c0,0-4.5,6.5,26-7.4c28.5-13,28.7-31.6,18.6-37c0,0-24.7,1.4-36.5,5
		c0,0-0.1,5.6,7.5,7.9c8.1,2.5,12.2,5.6,8.5,8.5c-4.3,3.5-13,4.1-15.4,4.4C20.7,114.3,19.3,114.5,19.3,114.5z"/>
	<linearGradient id="SVGID_2_" gradientUnits="userSpaceOnUse" x1="88.912" y1="82.1828" x2="88.912" y2="111.7909">
		<stop  offset="0.2209" style="stop-color:#FFFFFF"/>
		<stop  offset="0.6871" style="stop-color:#B2B2B2"/>
		<stop  offset="0.7301" style="stop-color:#B2B2B2"/>
	</linearGradient>
	<path class="st3" d="M71.5,89.1c0,0,0,13.1,0,18.1c0,0-0.3,0.4,1.5,2.2c1.8,1.8,8,3.3,17.6,1.7c9.6-1.6,13-1.9,13-1.9l2.7-0.5
		c0,0-1.7-18.8-0.9-26.5l-13.6,1.3c0,0-0.9,12.6-0.9,13.5c0,0.8-0.4,0.8-2.1,0.8c-1.7,0-3.9-0.8-3.9-4.7c0-3.8-0.2-9-0.2-9
		l-13.3,1.2L71.5,89.1z"/>
	<linearGradient id="SVGID_3_" gradientUnits="userSpaceOnUse" x1="128.8602" y1="77.1546" x2="128.8602" y2="106.9998">
		<stop  offset="0.2209" style="stop-color:#FFFFFF"/>
		<stop  offset="0.6871" style="stop-color:#B2B2B2"/>
		<stop  offset="0.7301" style="stop-color:#B2B2B2"/>
	</linearGradient>
	<path class="st4" d="M116.2,82.2c0,0,1,10.9,0,24.8c0,0,19.2-1,25.3-1V91.3l-10.8,1.8l-0.3-16l-14.2,1.7V82.2z"/>
	<linearGradient id="SVGID_4_" gradientUnits="userSpaceOnUse" x1="159.1828" y1="81.0766" x2="159.1828" y2="105.976">
		<stop  offset="0.2209" style="stop-color:#FFFFFF"/>
		<stop  offset="0.6871" style="stop-color:#B2B2B2"/>
		<stop  offset="0.7301" style="stop-color:#B2B2B2"/>
	</linearGradient>
	<path class="st5" d="M152.4,106c0,0,8.5,0,13.8,0c0,0-0.7-20.5-0.7-24.9h-13.3C152.2,81.1,153.5,95.1,152.4,106z"/>
	<linearGradient id="SVGID_5_" gradientUnits="userSpaceOnUse" x1="196.5877" y1="82.484" x2="196.5877" y2="112.5362">
		<stop  offset="0.2209" style="stop-color:#FFFFFF"/>
		<stop  offset="0.6871" style="stop-color:#B2B2B2"/>
		<stop  offset="0.7301" style="stop-color:#B2B2B2"/>
	</linearGradient>
	<path class="st6" d="M178.7,105.5c0,0,5.6-17.1,7.2-23.1l9.4,1.2v6.6l4.9,0.5l-1.2-7l11.1,0.8c0,0,3.4,21.7,5.2,27.9l-15-2.2
		l-1.1-8.6l-5.6-0.9l-2.3,8.2l-13.2-1.7L178.7,105.5z"/>
	<linearGradient id="SVGID_6_" gradientUnits="userSpaceOnUse" x1="243.2619" y1="86.9713" x2="243.2619" y2="121.215">
		<stop  offset="0.2209" style="stop-color:#FFFFFF"/>
		<stop  offset="0.6871" style="stop-color:#B2B2B2"/>
		<stop  offset="0.7301" style="stop-color:#B2B2B2"/>
	</linearGradient>
	<path class="st7" d="M224.2,113.9l13.7,2.7l1.3-9.6c0,0,0-3.8,3.5,4.1l3.3,6.9l15.3,3.2c0,0-1.4-18.5,1.1-30.5l-37-3.8
		C225.3,87,225.3,103.4,224.2,113.9z"/>
	<g>
		<circle class="st0" cx="270.9" cy="128.2" r="6.2"/>
		<g>
			<path d="M266.7,128c0-1.9,1.2-4.2,4.2-4.2c2.7,0,4.2,2,4.2,4.2c0,2.3-1.7,4.2-4.2,4.2C267.9,132.1,266.7,130,266.7,128z
				 M267.7,128c0,1.9,1.2,3.2,3.1,3.2c1.9,0,3.2-1.3,3.2-3.2c0-1.9-1.3-3.1-3.2-3.1C269,124.8,267.7,126.1,267.7,128z M269.9,130.2
				h-1v-4.5h2.5c0.9,0,1.5,0.4,1.5,1.4c0,0.8-0.4,1.2-1.2,1.2l1.1,1.9h-1.1l-1-1.8h-0.8V130.2z M271.2,127.7c0.5,0,0.8-0.1,0.8-0.7
				c0-0.5-0.5-0.5-1-0.5h-1.1v1.2H271.2z"/>
		</g>
	</g>
</g>
</svg>
