<?xml version="1.0" encoding="utf-8"?>
<!-- Generator: Adobe Illustrator 21.0.2, SVG Export Plug-In . SVG Version: 6.00 Build 0)  -->
<svg version="1.1" id="Capa_1" xmlns="http://www.w3.org/2000/svg" xmlns:xlink="http://www.w3.org/1999/xlink" x="0px" y="0px"
	 viewBox="0 0 280.2 199.7" style="enable-background:new 0 0 280.2 199.7;" xml:space="preserve">
<style type="text/css">
	.st0{fill:#00953A;}
</style>
<g>
	<g>
		<g>
			<path class="st0" d="M181.5,72.9c-22,0-35.6,27.2-35.5,53.3c0,11.4,4,26.8,22.4,26.8h0.2c22,0,34.2-28.6,34.2-53
				C202.6,89.2,199.9,72.9,181.5,72.9z M170.2,137.9H170c-5.7,0-5.8-7-5.8-12.7c-0.2-13.3,6.1-37.3,14.1-37.3c4.5,0,5.8,4.4,5.8,9.7
				C184.2,111.6,179.1,137.9,170.2,137.9z"/>
		</g>
	</g>
	<path class="st0" d="M76.9,64.4H46.2L30.7,152h19.4l7.7-41.3l11.3,0.2C93.4,111.2,93.8,85,93.8,85C95.9,62.7,76.9,64.4,76.9,64.4z
		 M78.3,86.8C76.6,95.9,66.4,95,66.4,95h-6.2l2.7-16.3h8.9C71.8,78.7,79.8,78.7,78.3,86.8z"/>
	<polygon class="st0" points="150.2,74.6 152.9,74.1 150.4,64.8 152.7,64.2 151.2,46.7 135.1,68 137.8,67.4 128.8,78.9 133.5,77.9 
		123.6,89.3 137,86.6 130.1,89.8 126.1,109.3 117.5,72.8 100.9,72.8 85.8,152 104.2,152 110.3,115.5 119,152 135.5,151.9 
		148.2,84.4 152.8,83.4 	"/>
	<path class="st0" d="M86.1,110.4c-4,5.4-20.4,4.5-20.4,4.5l-7.1,37l19.5,0.1l7-37.1l0,0L86.1,110.4z"/>
	<path class="st0" d="M240.8,132.8c-2.6,2.5-11,3.3-15.5,3.6h-4.6l9.6-52.2l3.9-0.8l-2.6-8.8l2.7-0.5l-2.5-9.3l2.3-0.6l-1.5-17.5
		L216.5,68l2.7-0.6l-9,11.5l4.7-1L205,89.3l14.1-2.9l-8.1,3.7l-13,61.7h38.9l2.7-13.9L240.8,132.8z"/>
	<path class="st0" d="M244.4,149.9V148h1c0.8,0,0.8,0.3,0.8,0.9c0,0.5,0,0.7,0.1,1h1.1v-0.1c-0.2-0.1-0.2-0.2-0.2-1
		c0-0.9-0.2-1-0.6-1.2c0.5-0.2,0.8-0.6,0.8-1.2c0-0.4-0.2-1.4-1.5-1.4h-2.5v4.8L244.4,149.9z M240.8,147.6c0,2.4,2,4.4,4.4,4.4
		s4.4-1.9,4.4-4.4c0-2.4-1.9-4.4-4.4-4.4C242.8,143.2,240.8,145.2,240.8,147.6 M249,147.6c0,2.1-1.7,3.7-3.7,3.7
		c-2.1,0-3.7-1.7-3.7-3.7c0-2.1,1.7-3.7,3.8-3.7C247.3,143.9,249,145.6,249,147.6 M244.4,145.9h1.3c0.6,0,0.7,0.4,0.7,0.6
		c0,0.5-0.3,0.7-0.8,0.7h-1.2V145.9z"/>
</g>
</svg>
