<?xml version="1.0" encoding="utf-8"?>
<!-- Generator: Adobe Illustrator 21.0.2, SVG Export Plug-In . SVG Version: 6.00 Build 0)  -->
<svg version="1.1" id="Capa_1" xmlns="http://www.w3.org/2000/svg" xmlns:xlink="http://www.w3.org/1999/xlink" x="0px" y="0px"
	 viewBox="0 0 280.2 199.7" style="enable-background:new 0 0 280.2 199.7;" xml:space="preserve">
<style type="text/css">
	.st0{fill-rule:evenodd;clip-rule:evenodd;fill:#001689;}
	.st1{fill-rule:evenodd;clip-rule:evenodd;fill:url(#SVGID_1_);}
	.st2{fill:#FFFFFF;}
</style>
<g>
	<path class="st0" d="M21.6,108.7l-3.3,34.1c0,0-0.4,10.1,8.8,10.1c0,0,73.2-2.4,117.2-14c0,0,50.7-11,107.4-35.2
		c0,0,6.6-2.5,7.8-13.5l2.5-32.4c0,0,1.7-11.1-9.3-11.1c0,0-69.8,1.9-116.2,11.6C91.8,67.6,32.2,93.8,32.2,93.8S23,96.9,21.6,108.7z
		"/>
	<linearGradient id="SVGID_1_" gradientUnits="userSpaceOnUse" x1="144.1511" y1="106.0041" x2="134.3952" y2="60.1061">
		<stop  offset="0" style="stop-color:#6154AD"/>
		<stop  offset="0.3436" style="stop-color:#001689"/>
	</linearGradient>
	<path class="st1" d="M21,126c0,0,22.4-4.5,29.9-5.5c7.5-1,47.6-5.1,67.1-9.2c19.5-4.1,23.8-4.3,48.7-10.9
		c24.8-6.6,88.5-26.6,92.9-28l1.1-14.7c0,0,1.1-9.9-7.9-9.9l-59,3.5c0,0-39.1,3.8-53,7.5c0,0-15.4,2.7-43.6,11.7
		c0,0-12.1,3.9-63.9,24c0,0-8.4,3.6-10,11.8L21,126z"/>
	<path class="st2" d="M238.6,55.6l-4.2,46.2l17.6-3.7l0.8-8.6l-9,1.9l3.4-37.6L238.6,55.6z M35.1,144c7.8-1.7,14.5-6.9,15.4-16
		c0.4-4-1-8.5-4.4-9.6c3.4-3,5.2-6.4,5.5-10.5c0.4-3.9-0.8-7.6-3.5-9.5c-2.5-1.8-5.4-1.3-8.8-0.6L31,99.6l-4.2,46.2L35.1,144z
		 M58.3,93.8L54,140l17.6-3.7l0.8-8.6l-9,1.9L66.9,92L58.3,93.8z M87.5,87.6L73.2,136l8.5-1.8L84,126l8.7-1.8l0.9,7.4l9.2-1.9
		l-6.2-44L87.5,87.6z M116.5,99.4l8,25.6l8.1-1.7l4.2-46.2l-8.6,1.8l-2.5,26.3l0,0l-7.7-24.2l-8.2,1.7l-4.2,46.2l8.6-1.8L116.5,99.4
		z M164.2,71.7c-1.4-0.2-2.8-0.2-4.3,0.1c-11.7,2.5-19.9,15.8-21,27.2c-1.1,12.1,4.7,22.6,17,20c1.4-0.3,2.7-0.8,4-1.6l0.8-8.6
		c-1.1,0.6-2.3,1.1-3.3,1.4c-7.5,1.6-10-6.2-9.4-13c0.7-7.1,4.6-15.1,12.2-16.7c1.1-0.2,2.1-0.3,3.2-0.2L164.2,71.7z M176.1,68.9
		l-14.3,48.3l8.5-1.8l2.3-8.1l8.7-1.8l0.9,7.4l9.2-1.9l-6.2-44L176.1,68.9z M193.4,65.2l-0.8,8.6l6.7-1.4l-3.4,37.6l8.6-1.8
		l3.4-37.6l6.8-1.4l0.8-8.6L193.4,65.2z M218.4,59.9l-4.2,46.2l17.4-3.7l0.8-8.6l-8.8,1.9l1-10.4l7.7-1.6l0.8-8.6l-7.7,1.6l0.9-10.1
		l8.7-1.8l0.8-8.6L218.4,59.9z M42.1,128.8c-0.4,3.9-2.6,7-6.1,7.5l1.1-12.5C40.6,123,42.5,125.2,42.1,128.8z M43.5,109.8
		c-0.3,3.5-2.4,6.2-5.7,6.9l1-11.3C42.2,104.5,43.8,106.4,43.5,109.8z M91.8,117.3l-6,1.3l3-12.7l1.7-7.2l0.3,6.8L91.8,117.3z
		 M180.6,98.5l-6,1.3l3-12.7l1.7-7.2l0.3,6.8L180.6,98.5z"/>
	<g>
		<path class="st2" d="M253.3,82.2c0,1.3-1.1,2.4-2.5,2.4c-1.4,0-2.5-1.1-2.5-2.4c0-1.4,1.1-2.4,2.5-2.4
			C252.3,79.8,253.3,80.9,253.3,82.2z M249,82.2c0,1.1,0.8,1.9,1.9,1.9c1,0,1.8-0.9,1.8-1.9c0-1.1-0.8-1.9-1.9-1.9
			C249.8,80.3,249,81.2,249,82.2z M250.5,83.5h-0.6v-2.4c0.2,0,0.5-0.1,0.9-0.1c0.5,0,0.7,0.1,0.8,0.2c0.1,0.1,0.3,0.3,0.3,0.5
			c0,0.3-0.2,0.5-0.5,0.6v0c0.2,0.1,0.4,0.3,0.4,0.6c0.1,0.4,0.1,0.5,0.2,0.6h-0.6c-0.1-0.1-0.1-0.3-0.2-0.6c0-0.2-0.2-0.4-0.5-0.4
			h-0.3V83.5z M250.5,82.1h0.3c0.3,0,0.6-0.1,0.6-0.4c0-0.2-0.2-0.4-0.5-0.4c-0.1,0-0.2,0-0.3,0V82.1z"/>
	</g>
</g>
</svg>
