<?xml version="1.0" encoding="utf-8"?>
<!-- Generator: Adobe Illustrator 22.1.0, SVG Export Plug-In . SVG Version: 6.00 Build 0)  -->
<svg version="1.1" id="Layer_1" xmlns="http://www.w3.org/2000/svg" xmlns:xlink="http://www.w3.org/1999/xlink" x="0px" y="0px"
	 viewBox="0 0 800 800" style="enable-background:new 0 0 800 800;" xml:space="preserve">
<style type="text/css">
	.st0{fill:#FFFFFF;}
</style>
<path class="st0" d="M689.3,215.8c-0.9-2.7-3.3-4.5-6.1-4.5H471.5L406.1,10.1c-0.9-2.7-3.3-4.5-6.1-4.5c-2.8,0-5.3,1.8-6.1,4.5
	l-65.4,201.3H116.8c-2.8,0-5.3,1.8-6.1,4.5c-0.9,2.7,0.1,5.6,2.3,7.2l171.2,124.4l-65.4,201.3c-0.9,2.7,0.1,5.6,2.3,7.2
	c1.1,0.8,2.5,1.2,3.8,1.2s2.7-0.4,3.8-1.2l133-96.7V614v6.5l-29-29c-8.3-8.3-19.4-12.9-31.3-12.9l0,0c-11.8,0-22.9,4.6-31.2,12.9
	l-2,2c-17.2,17.2-17.2,45.3,0,62.5l74.1,74.1l28.1,28.4c11.3,20.4,31.7,33.7,54.7,35.5c1.7,0.2,3.5,0.2,5.7,0.2h128.5
	c38,0,69-30.9,69-69V614v-97.6c0-10.2-4-19.7-11.2-26.9c-7.2-7.2-16.8-11.2-27-11.2c-11,0-21,4.7-28,12.2l-46.5-143l171.2-124.4
	C689.2,221.4,690.2,218.5,689.3,215.8z M590.2,491.2c6.7,0,13,2.6,17.8,7.4s7.4,11.1,7.4,17.8V614v111.3c0,30.9-25.1,56.1-56.1,56.1
	H430.8c-1.7,0-3.1-0.1-4.5-0.2c-19-1.5-35.8-12.6-44.9-29.6l-0.4-0.8L351.6,721l-74.2-74c-12.2-12.2-12.2-32.1,0-44.3l2-2
	c5.9-5.9,13.7-9.1,22-9.1l0,0c8.4,0,16.2,3.2,22.1,9.1l51.1,51.1V614V388.2c0-13.9,11.3-25.3,25.2-25.3c6.7,0,13.1,2.6,17.9,7.5
	c4.8,4.7,7.4,11.1,7.4,17.8v128.3v35.1H438v-35.1c0-13.9,11.3-25.2,25.2-25.2c6.7,0,13,2.6,17.8,7.4s7.4,11.1,7.4,17.8v35.1h12.9
	v-35.1c0-13.9,11.3-25.2,25.2-25.2c6.7,0,13,2.6,17.8,7.4s7.4,11.1,7.4,17.8v35.1h12.9v-35.1C564.9,502.5,576.2,491.2,590.2,491.2z
	 M438.2,459.3l26.2,19c-0.3,0-0.6,0-1,0c-9.7,0-18.5,3.6-25.2,9.6V459.3z M504.4,339.8c-2.3,1.6-3.2,4.6-2.3,7.2l44.5,136.8
	c-5.9-3.6-12.7-5.5-19.7-5.5c-10.1,0-19.3,4-26.1,10.4l-62.5-45.4v-55.1c0-10.2-4-19.8-11.2-26.9c-7.2-7.2-16.8-11.2-27-11.2
	c-21,0-38.1,17.1-38.1,38.2v55.1l-124.5,90.5L298,347c0.9-2.7-0.1-5.6-2.3-7.2l-159-115.5h196.4c2.8,0,5.3-1.8,6.1-4.5L400,33
	l60.7,186.8c0.9,2.7,3.3,4.5,6.1,4.5h196.4L504.4,339.8z"/>
</svg>
