<?xml version="1.0" encoding="utf-8"?>
<!-- Generator: Adobe Illustrator 22.1.0, SVG Export Plug-In . SVG Version: 6.00 Build 0)  -->
<svg version="1.1" id="Layer_1" xmlns="http://www.w3.org/2000/svg" xmlns:xlink="http://www.w3.org/1999/xlink" x="0px" y="0px"
	 viewBox="0 0 800 800" style="enable-background:new 0 0 800 800;" xml:space="preserve">
<style type="text/css">
	.st0{fill:#FFFFFF;}
</style>
<g>
	<path class="st0" d="M753.9,295.2c-0.8-3.8-4.1-6.6-8-6.7l-65.1-2.2c-6.1-21.4-14.6-42-25.4-61.4l44.5-47.6c2.7-2.8,3-7.1,0.9-10.4
		C674,126.7,640,92.7,599.7,65.9c-3.2-2.2-7.5-1.8-10.4,0.9l-47.6,44.5c-19.4-10.8-40-19.4-61.4-25.5l-2.2-65.1
		c-0.1-3.9-2.9-7.2-6.7-8c-46.7-9.4-96.2-9.4-142.9,0c-3.8,0.8-6.6,4.1-6.7,8l-2.2,65.1c-21.4,6.1-42,14.7-61.4,25.5l-47.6-44.5
		c-2.8-2.7-7.1-3-10.4-0.9c-40.2,26.7-74.2,60.7-101,101c-2.2,3.2-1.8,7.5,0.9,10.4l44.5,47.6c-10.8,19.4-19.4,40-25.4,61.4
		L54,288.4c-3.9,0.1-7.2,2.9-8,6.7c-4.7,23.3-7.1,47.4-7.1,71.5s2.4,48.1,7.1,71.4c0.8,3.8,4.1,6.6,8,6.7l65.1,2.2
		c6.1,21.4,14.6,42,25.4,61.4L100.1,556c-2.7,2.8-3,7.1-0.9,10.4c26.8,40.3,60.8,74.3,101.1,101.1c1.4,0.9,3,1.4,4.6,1.4
		c2.1,0,4.1-0.8,5.7-2.3l47.6-44.5c10.8,6,22,11.3,33.3,15.9l6.2-15.6c-12.5-5-24.8-11-36.5-17.9c-3.2-1.9-7.3-1.4-10,1.1L204,649.7
		c-34.2-23.7-63.5-53-87.2-87.2l44.2-47.2c2.5-2.7,3-6.8,1.1-10c-12.6-21.5-22.2-44.6-28.5-68.7c-0.9-3.6-4.2-6.1-7.9-6.3l-64.6-2.1
		c-3.6-20.2-5.5-40.9-5.5-61.6s1.8-41.4,5.5-61.7l64.3-2.1c3.8,0,7.2-2.6,8.1-6.3c6.3-24.1,15.9-47.2,28.5-68.7
		c1.9-3.2,1.4-7.3-1.1-10L117,170.7c23.7-34.2,53-63.5,87.2-87.2l47.2,44.1c2.7,2.5,6.8,3,10,1.1c21.5-12.6,44.6-22.2,68.7-28.5
		c3.6-0.9,6.1-4.1,6.3-7.8l2.1-64.6c40.4-7.3,82.9-7.3,123.3,0l2.1,64.3c0,3.8,2.6,7.2,6.3,8.1c24.1,6.3,47.2,15.9,68.7,28.5
		c3.2,1.9,7.3,1.4,10-1.1l47.2-44.2c34.2,23.7,63.5,53,87.1,87.2l-44.1,47.2c-2.5,2.7-3,6.8-1.1,10c12.6,21.5,22.2,44.6,28.5,68.7
		c0.9,3.6,4.2,6.1,7.9,6.3l64.6,2.1c3.6,20.2,5.5,40.9,5.5,61.6s-1.8,41.4-5.5,61.6l-64.4,2.1c-3.8,0-7.2,2.6-8.1,6.3
		c-6.3,24.1-15.9,47.2-28.5,68.7c-1.9,3.2-1.4,7.3,1.1,10l44.2,47.2c-23.7,34.2-53,63.5-87.2,87.2l-47.2-44.1c-2.7-2.5-6.8-3-10-1.1
		c-10.6,6.2-21.8,11.8-33.2,16.5l6.4,15.5c10.1-4.2,20.1-9,29.7-14.4l47.6,44.5c2.8,2.7,7.1,3,10.4,0.9
		c40.3-26.8,74.3-60.8,101.1-101c2.2-3.2,1.8-7.5-0.9-10.4l-44.5-47.6c10.8-19.4,19.4-40,25.4-61.4l65.1-2.2c3.9-0.1,7.2-2.9,8-6.7
		c4.7-23.3,7.1-47.4,7.1-71.4C761,342.6,758.6,318.5,753.9,295.2z"/>
	<path class="st0" d="M476.5,619c4.7-24.8,19.8-47,41.5-60.9c62.9-41,100.5-110.5,100.5-186c0-61.2-25.5-120.1-69.9-161.8
		c-44.3-41.6-102.1-62.4-162.7-58.5c-111.2,7-200.9,100.8-204.2,213.5c-2.4,78.5,35.3,150.6,100.6,192.9c13.1,8.5,24,20.1,31.3,33.5
		c4.7,8.5,8,17.6,9.7,27.1v0.1c0,0,0,0,0,0.1c0.7,3.4,1.2,6.9,1.4,10.6c-2.7,0.9-5.4,2.2-7.8,3.8c-0.4,0.2-0.8,0.5-1.2,0.7
		c-1.8,1.4-3.5,2.7-5,4.2c-6.7,6.8-10.4,15.8-10.4,25.5c0,10.8,4.8,20.9,12.9,27.8c-0.9,0.7-1.7,1.5-2.5,2.3
		c-6.7,6.8-10.4,15.9-10.4,25.5c0,19.9,16.1,36.2,35.8,36.2h17.7c3.9,22.1,23.1,38.9,46.1,38.9s42.2-16.8,46.1-38.9h17.6
		c9.6,0,18.9-3.9,25.3-10.7c6.8-6.9,10.5-15.9,10.5-25.5c0-10.8-5-21.1-12.9-27.8c0.8-0.7,1.6-1.4,2.4-2.2
		c6.8-6.9,10.5-15.9,10.5-25.6c0-11.9-5.9-23.1-15.7-29.8c-0.3-0.2-0.6-0.4-0.9-0.5c-2.4-1.6-5.1-2.8-7.8-3.8
		C475.4,626,475.8,622.4,476.5,619L476.5,619z M340.9,618.7c0.3-0.4,0.7-0.9,1-1.3c0.6-0.7,1.1-1.4,1.7-2.1c0.4-0.5,0.8-0.9,1.2-1.3
		c0.6-0.7,1.2-1.3,1.8-1.9c0.4-0.4,0.8-0.9,1.3-1.3c0.6-0.6,1.2-1.2,1.9-1.8c0.4-0.4,0.9-0.8,1.4-1.2c0.6-0.6,1.3-1.1,2-1.7
		c0.5-0.4,0.9-0.8,1.4-1.1c0.7-0.5,1.4-1.1,2.1-1.6c0.5-0.3,0.9-0.7,1.4-1c0.8-0.6,1.6-1.1,2.4-1.6c0.4-0.3,0.8-0.5,1.2-0.8
		c1.2-0.8,2.5-1.5,3.8-2.2c10.4-5.7,22.3-8.7,34.5-8.7c12.3,0,23.9,2.9,34.5,8.7c1.3,0.7,2.5,1.4,3.8,2.2c0.4,0.3,0.8,0.5,1.2,0.8
		c0.8,0.5,1.6,1,2.4,1.6c0.5,0.3,1,0.7,1.4,1c0.7,0.5,1.4,1,2.1,1.6c0.5,0.4,1,0.8,1.5,1.2c0.6,0.5,1.3,1.1,1.9,1.6
		c0.5,0.4,1,0.9,1.5,1.3c0.6,0.5,1.1,1.1,1.7,1.7c0.5,0.5,1,1,1.4,1.5c0.5,0.6,1.1,1.1,1.6,1.7c0.5,0.5,0.9,1,1.4,1.6s1,1.2,1.4,1.8
		s0.9,1.1,1.3,1.7c0.1,0.2,0.2,0.4,0.4,0.5c-0.4,2.7-0.7,5.5-1,8.3h-117c-0.2-2.9-0.6-5.7-1-8.4
		C340.6,619.1,340.8,618.9,340.9,618.7z M362.4,405.5c3.1,2.6,7.7,2.6,10.9,0c13.5-11.5,21.2-28.3,21.2-46.2c0-3.8-0.4-7.9-1.2-12.2
		c-1.9-9.7-6.2-18.8-12.4-26.4c8.9-4.8,19.3-6.3,29.6-4.2c3.8,0.8,7.5,2.2,11,4.1c-6.3,7.7-10.7,16.8-12.6,26.6
		c-4.2,21.8,3.5,44.1,19.6,57.8c3.2,3.3,8.5,3.4,11.8,0.2c0.2-0.2,0.3-0.3,0.5-0.5c16.2-14.3,23.3-35.8,19.1-57.6
		c-1.9-9.7-6.2-18.9-12.5-26.5c3.4-1.9,7.1-3.2,10.9-4.1c11.7-2.4,23-0.4,32.6,5.9c7.5,4.8,12.5,12.5,14.3,21.7
		c1.9,10.2-0.4,20.9-6.5,29.4l-45,62.5c-15.5,21.5-23.7,46.9-23.7,73.6v67.8c-9.6-3.4-19.8-5.2-30.1-5.2c-10.3,0-20.5,1.8-30.1,5.2
		v-66.8c0-25.5-7.6-50.1-22-71.1l-45.2-66.2c-5.7-8.4-7.9-18.9-6-28.8c1.8-9.1,6.8-16.8,14.3-21.7c9.6-6.4,21.3-8.6,32.9-6.2
		c3.8,0.8,7.6,2.2,11.1,4.1c-8.9,10.8-13.9,24.4-13.9,38.7C341.1,377.2,348.8,394,362.4,405.5z M357.9,359.2c0-10.3,3.6-20.2,10-28
		c4.5,5.5,7.6,12.1,8.9,19c0.6,3.2,0.9,6.2,0.9,9c0,10.3-3.5,20.1-9.9,27.9C361.4,379.4,357.9,369.6,357.9,359.2z M425.3,350.4
		c1.4-7,4.5-13.6,9-19.1c4.5,5.5,7.6,12.1,9,19c2.6,13.5-0.7,26.8-9,36.9C426,377.1,422.7,363.8,425.3,350.4z M291.4,544.2
		c-60.4-39.1-95.2-105.8-93-178.3c3-104.2,85.8-190.8,188.4-197.3c55.9-3.5,109.3,15.6,150.2,54c41,38.5,64.6,93,64.6,149.6
		c0,69.8-34.7,134-92.8,171.9c-20.6,13.3-36.2,32.9-44.3,55.5c-1.1-1.1-2.3-2.2-3.4-3.3c-0.3-0.2-0.5-0.5-0.8-0.7
		c-1.2-1.1-2.4-2.1-3.7-3.2c-0.2-0.2-0.4-0.3-0.6-0.5c-1.2-0.9-2.3-1.8-3.5-2.7c-0.3-0.2-0.5-0.4-0.8-0.6c-1.3-0.9-2.6-1.8-4-2.6
		c-0.3-0.2-0.6-0.4-0.9-0.5v-75.9c0-23.1,7.1-45.1,20.5-63.8l44.8-62.4c8.7-12.1,12.1-27.6,9.3-42.3c-2.6-13.8-10.3-25.4-21.6-32.7
		c-13.2-8.6-29.2-11.6-45.2-8.3c-7.3,1.6-14.1,4.5-20.3,8.7c-6.2-4.2-13.1-7.2-20.4-8.7c-16.2-3.4-32.6-0.2-46,8.8
		c-6.2-4.2-13.2-7.2-20.6-8.8c-16.1-3.4-32.4-0.3-45.7,8.6c-11.2,7.4-18.8,18.9-21.4,32.5c-2.8,14.3,0.3,29.4,8.6,41.5l45.2,66.2
		c12.5,18.2,19,39.5,19,61.7v74.9c-0.3,0.2-0.5,0.3-0.8,0.5c-1.4,0.9-2.7,1.7-4.1,2.7c-0.2,0.2-0.5,0.3-0.7,0.5
		c-1.3,0.9-2.5,1.8-3.7,2.8c-0.2,0.1-0.3,0.2-0.5,0.4c-1.3,1-2.5,2.1-3.8,3.2c-0.2,0.2-0.5,0.4-0.7,0.7c-1.2,1.1-2.3,2.2-3.5,3.3
		c-1.9-5.4-4.3-10.7-7.1-15.8C319.6,567.8,306.9,554.2,291.4,544.2z M399.9,777.5c-13.7,0-25.3-9.4-28.9-22.1h57.9
		C425.3,768.2,413.7,777.5,399.9,777.5z M477,733c-3.4,3.5-8.2,5.6-13.3,5.6h-25.3h-77h-25.3c-10.5,0-19-8.7-19-19.4
		c0-5.2,2-10,5.6-13.7c1.4-1.4,3-2.6,4.6-3.5c2.8-1.5,5.8-2.2,8.8-2.2h127.6c3.2,0,6,0.7,8.7,2.2c6.3,3.2,10.3,10,10.3,17.1
		C482.8,724.4,480.8,729.2,477,733z M482.8,663.7c0,5.2-2,10.1-5.7,13.8c-0.6,0.7-1.4,1.3-2.2,1.9c-0.3,0.2-0.6,0.3-0.8,0.5
		c-2.9,2.1-6.5,3.2-10.4,3.2H336.2c-3.9,0-7.5-1.1-10.5-3.2c-0.2-0.2-0.5-0.3-0.7-0.4c-4.9-3.7-7.8-9.5-7.8-15.7
		c0-5.2,2-10,5.6-13.7c0.7-0.7,1.5-1.4,2.3-2c0.2-0.1,0.4-0.2,0.5-0.3c2.5-1.7,5.4-2.8,8.4-3.2h132c2.9,0.4,5.8,1.5,8.3,3.2
		c0.2,0.1,0.4,0.3,0.7,0.4C479.8,651.8,482.8,657.6,482.8,663.7z"/>
</g>
</svg>
