<?xml version="1.0" encoding="utf-8"?>
<!-- Generator: Adobe Illustrator 22.1.0, SVG Export Plug-In . SVG Version: 6.00 Build 0)  -->
<svg version="1.1" id="Layer_1" xmlns="http://www.w3.org/2000/svg" xmlns:xlink="http://www.w3.org/1999/xlink" x="0px" y="0px"
	 viewBox="0 0 800 800" style="enable-background:new 0 0 800 800;" xml:space="preserve">
<style type="text/css">
	.st0{fill:#FFFFFF;}
</style>
<g>
	<path class="st0" d="M526.1,266.6l32.6-1.1l0.9-4.3c2.1-10.7,3.2-21.6,3.2-32.6s-1.1-22-3.2-32.7l-0.9-4.3l-32.6-1.1
		c-2.6-9-6.2-17.6-10.7-25.8l22.3-23.8l-2.4-3.6c-12.2-18.4-27.7-33.9-46.2-46.2l-3.6-2.4L461.6,111c-8.2-4.5-16.9-8.1-25.8-10.7
		l-1.1-32.6l-4.3-0.9c-21.3-4.3-44-4.3-65.3,0l-4.3,0.9l-1.1,32.6c-9,2.7-17.6,6.2-25.8,10.7l-23.8-22.2l-3.6,2.4
		c-18.4,12.2-33.9,27.8-46.2,46.2l-2.4,3.6l22.2,23.8c-3.1,5.8-5.9,11.8-8.1,17.9l10.3,3.8c2.5-6.8,5.6-13.4,9.3-19.7l2.1-3.5
		L272,139.9c10.2-14.4,22.6-26.9,37.1-37.1l23.3,21.8l3.5-2.1c9.6-5.6,19.9-9.9,30.6-12.7l4-1l1.1-31.9c17.2-2.9,35.2-2.9,52.4,0
		l1.1,31.9l4,1c10.8,2.8,21.1,7.1,30.6,12.7l3.5,2.1l23.3-21.8c14.4,10.2,26.9,22.6,37.1,37.1l-21.8,23.3l2.1,3.5
		c5.6,9.6,9.9,19.9,12.7,30.6l1,4l31.9,1.1c1.5,8.6,2.2,17.4,2.2,26.2s-0.7,17.6-2.2,26.2l-31.9,1.1l-1,4
		c-2.8,10.7-7.1,21-12.7,30.6l-2.1,3.5l21.8,23.3c-10.2,14.4-22.6,26.9-37.1,37.1l-23.3-21.8l-3.5,2.1c-9.6,5.6-19.9,9.9-30.6,12.7
		l-4,1l-1.1,31.9c-17.2,2.9-35.2,2.9-52.4,0l-1.1-31.9l-4-1c-10.7-2.8-21-7.1-30.6-12.7l-3.5-2.1L309,354.4
		c-14.4-10.2-26.9-22.6-37.1-37.1l21.8-23.3l-2.1-3.5c-4.4-7.5-8-15.4-10.7-23.7l-10.5,3.4c2.5,7.7,5.7,15.2,9.6,22.3l-22.3,23.8
		l2.4,3.6c12.2,18.4,27.8,33.9,46.2,46.2l3.6,2.4l23.8-22.3c8.2,4.5,16.9,8.1,25.8,10.7l1.1,32.6l4.3,0.9
		c10.7,2.1,21.6,3.2,32.6,3.2s22-1.1,32.7-3.2l4.3-0.9l1.1-32.6c9-2.6,17.6-6.2,25.8-10.7l23.8,22.3l3.6-2.4
		c18.4-12.2,33.9-27.8,46.2-46.2l2.4-3.6l-22.3-23.8C519.8,284.2,523.4,275.6,526.1,266.6z"/>
	<path class="st0" d="M331.2,258l-10.1,4.5c13.4,30.3,43.5,50,76.7,50c46.2,0,83.8-37.6,83.8-83.8c0-31.8-17.7-60.5-46.1-74.9
		l-5,9.8c24.7,12.5,40,37.4,40,65c0,40.1-32.7,72.8-72.8,72.8C369,301.4,342.8,284.4,331.2,258z"/>
	<path class="st0" d="M365,163.6l-5-9.8c-14.4,7.2-26.3,18.4-34.5,32.3l9.5,5.6C342.2,179.6,352.6,169.9,365,163.6z"/>
	<path class="st0" d="M420,689.4V410.7h-11v283.9c0,3,2.3,5.4,5.3,5.5c55.5,2,89,14.5,97.9,25.2H287.8c8.9-10.7,42.4-23.2,97.9-25.2
		c3-0.1,5.3-2.5,5.3-5.5V410.7h-11v278.7c-51.8,2.6-105.6,16.4-105.6,41.5c0,3,2.5,5.5,5.5,5.5H520c3,0,5.5-2.5,5.5-5.5
		C525.6,705.8,471.8,692,420,689.4z"/>
	<path class="st0" d="M444.3,244.7v-11h-29.8c-3,0-5.5,2.5-5.5,5.5v36.6h11v-31.1L444.3,244.7L444.3,244.7z"/>
	<path class="st0" d="M256.7,389.9L145,244.7h98.5H380v31.1h11v-36.6c0-3-2.5-5.5-5.5-5.5h-142H138.9v-17.9h104.5h142.1
		c3,0,5.5-2.5,5.5-5.5v-61.4h18v38.5v22.9c0,3,2.5,5.5,5.5,5.5h29.8v-11H420v-17.4v-44c0-3-2.5-5.5-5.5-5.5h-29
		c-3,0-5.5,2.5-5.5,5.5v61.4H243.5h-110c-3,0-5.5,2.5-5.5,5.5v26.6l-117.8,153l0,0C9.4,390.8,9,392,9,393.2c0,59,55.8,107,124.4,107
		s124.4-48,124.4-107C257.9,392,257.4,390.8,256.7,389.9L256.7,389.9z M127.9,387.7H25.7l102.2-132.8
		C127.9,254.9,127.9,387.7,127.9,387.7z M138.9,254.9l102.2,132.8H138.9V254.9z M133.4,489.2c-60.4,0-109.8-40.1-113.2-90.5h226.5
		C243.3,449.1,193.8,489.2,133.4,489.2z"/>
	<path class="st0" d="M788.2,387.7L672.1,236.9v-26.6c0-3-2.5-5.5-5.5-5.5h-93.3v11h87.8v17.9h-87.8v11H655l-110.1,143h-2.8v5.5
		c0,59,55.8,107,124.4,107s124.4-48,124.4-107v-5.5L788.2,387.7L788.2,387.7z M672.1,254.9l102.2,132.8H672.1V254.9z M661.1,254.9
		v132.8H558.8L661.1,254.9z M666.6,489.2c-60.4,0-109.8-40.1-113.2-90.5h226.5C776.4,449.1,726.9,489.2,666.6,489.2z"/>
</g>
</svg>
