<?xml version="1.0" encoding="utf-8"?>
<!-- Generator: Adobe Illustrator 22.1.0, SVG Export Plug-In . SVG Version: 6.00 Build 0)  -->
<svg version="1.1" id="Layer_1" xmlns="http://www.w3.org/2000/svg" xmlns:xlink="http://www.w3.org/1999/xlink" x="0px" y="0px"
	 viewBox="0 0 800 800" style="enable-background:new 0 0 800 800;" xml:space="preserve">
<style type="text/css">
	.st0{fill:#FFFFFF;}
</style>
<g>
	<path class="st0" d="M332,351.4c-61.7-61.7-149.4-72.4-153.1-72.8c-1.9-0.2-3.7,0.4-5.1,1.8c-1.3,1.3-2,3.2-1.8,5.1
		c0.4,3.7,11.1,91.4,72.8,153.1s149.4,72.4,153.1,72.8c0.2,0,0.5,0,0.7,0c1.6,0,3.2-0.6,4.4-1.8c1.3-1.3,2-3.2,1.8-5.1
		C404.4,500.8,393.7,413.1,332,351.4z M253.6,429.8c-48-48-63.8-114.7-68-137.7c22.9,4.2,89.6,19.9,137.7,68
		c48,48,63.8,114.7,68,137.7C368.3,493.6,301.6,477.8,253.6,429.8z"/>
	<path class="st0" d="M420.9,598.4V420.9c20.6-3.3,94-18.4,147.7-72.1c61.7-61.7,72.4-149.4,72.8-153.1c0.2-1.9-0.4-3.7-1.8-5.1
		c-1.3-1.3-3.2-2-5.1-1.8c-3.7,0.4-91.4,11.1-153.1,72.8c-32,32-50.3,71-60.5,101.7V195.1h-2c0.1-0.5,0.1-1.4,0.2-2.4
		c2.9,0.2,6.8,0.4,11.6,0.4c21.4,0,59.7-3.4,93.7-24.4c49.5-30.5,69.9-85.6,70.8-88c0.6-1.8,0.4-3.7-0.5-5.3c-1-1.6-2.7-2.7-4.5-2.9
		c-2.5-0.3-60.9-6.9-110.4,23.6c-30.6,18.9-50.1,47.2-60.7,66.6c-1.7-21.7-7.4-50.7-23.7-77.2c-30.5-49.5-85.6-69.9-88-70.8
		c-1.8-0.6-3.7-0.4-5.3,0.5c-1.6,1-2.7,2.7-2.9,4.5c-0.3,2.5-6.9,60.9,23.6,110.4c27.6,44.8,75.3,65.8,85.9,70v215.5l0,0v182.8
		H420.9z M490.1,270.5c48-48,114.7-63.8,137.7-68c-4.2,22.9-20,89.6-68,137.7c-48,48-114.7,63.8-137.7,68
		C426.3,385.2,442.1,318.5,490.1,270.5z M486.2,106.5c35.3-21.7,76.7-23,94.1-22.4c-7.3,15.8-27.1,52.3-62.4,74
		c-35.3,21.7-76.7,23-94.1,22.4C431.1,164.7,450.9,128.2,486.2,106.5z M407.1,186c-15.8-7.3-52.3-27.1-74-62.4s-23-76.7-22.4-94.1
		c15.8,7.3,52.3,27.1,74,62.4C406.4,127.1,407.7,168.6,407.1,186z"/>
	<path class="st0" d="M341.4,633c-1-1.3-2.5-2.1-4.1-2.3s-3.3,0.3-4.5,1.3l-4.3,3.5l-26.7-68.4c-5.3-13.5-16.8-24-30.7-28.1
		l-117-34.1c-4.5-1.3-9.2-1-13.5,0.9l-32.1-97.2c-6.4-19.4-23.7-33-44.1-34.7l-6.5-0.5c-1.8-0.2-3.6,0.5-4.9,1.8
		c-1.3,1.3-1.9,3.1-1.8,4.9l16.7,202.7c0.5,5.8,3.4,11,7.9,14.2L226,718l-7.5,6c-2.7,2.1-3.1,6-0.9,8.7l40.9,50.7
		c1,1.3,2.5,2.1,4.1,2.3c0.2,0,0.4,0,0.7,0c1.4,0,2.8-0.5,3.9-1.4l114.2-92c2.7-2.1,3.1-6,0.9-8.7L341.4,633z M83,587.2
		c-1.8-1.3-2.9-3.2-3-5.3L63.9,386.4c15.1,1.5,27.9,11.8,32.7,26.3l34.1,103c-0.5,1-0.9,2-1.1,3.1c-4.6,17,2.9,35,18.2,43.7l62,35.2
		l6.1-10.7l-62-35.2c-10.4-5.9-15.5-18.1-12.4-29.7c0.5-1.9,1.8-3.5,3.5-4.5s3.7-1.2,5.6-0.6l117,34.1c10.3,3,18.8,10.8,22.7,20.8
		l28.1,72l-82.5,66.4L83,587.2z M264.2,770.9l-33.1-41.1l104.6-84.3l33.1,41.1L264.2,770.9z"/>
	<path class="st0" d="M747.2,375.3c-1.3-1.3-3-2-4.9-1.8l-6.5,0.5c-20.4,1.7-37.7,15.3-44.1,34.7L659.6,506c-4.2-1.9-9-2.2-13.5-0.9
		l-117,34.1c-14,4.1-25.5,14.6-30.7,28.1l-26.7,68.4l-4.3-3.5c-1.3-1-2.9-1.5-4.5-1.3s-3.1,1-4.1,2.3l-40.9,50.7
		c-2.1,2.7-1.7,6.5,0.9,8.7l114.2,92c1.1,0.9,2.5,1.4,3.9,1.4c0.2,0,0.4,0,0.7,0c1.6-0.2,3.1-1,4.1-2.3l40.9-50.7
		c2.1-2.7,1.7-6.5-0.9-8.7l-7.5-6l150.2-120.8c4.7-3.4,7.7-8.6,8.1-14.4L749,380.2C749.1,378.3,748.5,376.6,747.2,375.3z
		 M535.8,770.9l-104.6-84.3l33.1-41.1l104.6,84.3L535.8,770.9z M720,581.8c-0.2,2.1-1.3,4.1-3.3,5.5L564.1,710.1l-82.5-66.4l28.1-72
		c3.9-10,12.4-17.8,22.7-20.8l117-34.1c1.9-0.6,3.9-0.3,5.6,0.6c1.7,1,3,2.5,3.5,4.5c3.1,11.6-1.9,23.8-12.4,29.7l-62,35.2l6.1,10.7
		l62-35.2c15.3-8.7,22.8-26.6,18.2-43.7c-0.3-1.1-0.7-2.1-1.1-3.1l34.1-103c4.8-14.5,17.6-24.7,32.7-26.3L720,581.8z"/>
</g>
</svg>
