<?xml version="1.0" encoding="utf-8"?>
<!-- Generator: Adobe Illustrator 22.1.0, SVG Export Plug-In . SVG Version: 6.00 Build 0)  -->
<svg version="1.1" id="Layer_1" xmlns="http://www.w3.org/2000/svg" xmlns:xlink="http://www.w3.org/1999/xlink" x="0px" y="0px"
	 viewBox="0 0 800 800" style="enable-background:new 0 0 800 800;" xml:space="preserve">
<style type="text/css">
	.st0{fill:#FFFFFF;}
</style>
<g>
	<path class="st0" d="M685.5,557.7c-1.2-1.2-2.8-1.9-4.4-1.9l-83-0.7c0,0,0,0-0.1,0c-1.7,0-3.2,0.6-4.4,1.8s-1.9,2.8-1.9,4.4
		l-0.1,9.2l-91-29.5c-17.2-5.6-36.3-2.8-51.1,7.4l-128,87.8c-5.1,3.5-8.6,8.8-9.7,14.9l-123.4-47.4c-23.7-9.1-50.5-3.2-68.1,15.1
		l-5.8,6c-1.3,1.3-1.9,3.2-1.7,5c0.2,1.8,1.2,3.5,2.7,4.6l213.3,147.2c4,2.7,8.6,4.2,13.3,4.2c2,0,4-0.3,5.9-0.8l242.5-51l-0.1,14.2
		c0,3.5,2.8,6.3,6.2,6.3l83,0.7c0,0,0,0,0.1,0c1.7,0,3.2-0.6,4.4-1.8s1.9-2.8,1.9-4.4l1.5-186.8
		C687.4,560.5,686.7,558.9,685.5,557.7z M345.1,772.7c-0.1,0-0.2,0.1-0.3,0.1c-3.1,0.8-6.4,0.3-9-1.5l-207.1-143l0.6-0.7
		c14.2-14.6,35.6-19.4,54.6-12.1l129.6,49.8c0.6,1.4,1.4,2.7,2.3,4c9.1,12.8,23.7,20,38.7,20c5.7,0,11.6-1,17.2-3.2l84.7-32.8
		l-4.5-11.7l-84.7,32.8c-14.9,5.8-31.8,0.7-41.1-12.3c-1.7-2.4-2.4-5.3-1.9-8.2s2.1-5.4,4.6-7.1l128-87.8c11.7-8,26.7-10.2,40.1-5.8
		l94.8,30.7l-1.1,137.3L345.1,772.7z M673.3,742.6l-70.4-0.6l1.4-174.3l70.4,0.6L673.3,742.6z"/>
	<path class="st0" d="M245,583.2l85.7,40.1l5.3-11.4l-85.7-40.1c-17.4-8.1-38.3-6.9-53.3,3.1l-4.8,3.2c-1.7,1.1-2.7,3-2.8,5
		s0.9,4,2.5,5.2l34.4,26.2l7.6-10l-27.2-20.7C217.9,577.7,232.6,577.4,245,583.2z"/>
	<path class="st0" d="M386.3,580l-54.2-28.5c-17-8.9-37.9-8.6-53.4,0.7l-5,3c-1.7,1-2.9,2.9-3,4.9c-0.2,2,0.7,4,2.2,5.3l27.2,22.7
		l8.1-9.7l-20.3-16.9c11.5-5.6,26.2-5.2,38.4,1.1l54.2,28.5L386.3,580z"/>
	<path class="st0" d="M190.7,324.8c0,14.9,10.4,35,31.7,61.5c16.3,20.2,38.9,44,67.3,70.8c48.2,45.4,97,84.2,97.5,84.6l3.9,3.1
		l3.9-3.1c0.5-0.4,49.3-39.2,97.5-84.6c28.4-26.7,51-50.6,67.3-70.8c21.3-26.5,31.7-46.6,31.7-61.5c0-61.4-49.9-111.3-111.3-111.3
		c-19.2,0-38.2,5-54.8,14.5c-13.4,7.6-25.1,18-34.3,30.3c-9.2-12.3-20.9-22.7-34.3-30.3c-16.6-9.5-35.6-14.5-54.8-14.5
		C240.7,213.5,190.7,263.4,190.7,324.8z M302.1,226.1c34.2,0,65.5,17.4,83.8,46.6l5.3,8.6l5.3-8.6c18.2-29.2,49.5-46.6,83.8-46.6
		c54.4,0,98.7,44.3,98.7,98.7c0,29.2-59.5,89.6-95,123.1c-39.9,37.6-80.3,70.7-92.8,80.8c-12.5-10.1-52.8-43.1-92.8-80.7
		c-35.5-33.5-95.1-94-95.1-123.1C203.3,270.4,247.6,226.1,302.1,226.1z"/>
	<rect x="377.1" y="14.2" class="st0" width="12.6" height="131.3"/>
	
		<rect x="184" y="69.3" transform="matrix(0.8168 -0.5769 0.5769 0.8168 -38.2457 132.9838)" class="st0" width="12.6" height="114.9"/>
	
		<rect x="544.1" y="120.5" transform="matrix(0.5769 -0.8168 0.8168 0.5769 150.9573 545.0128)" class="st0" width="114.9" height="12.6"/>
</g>
</svg>
