<?xml version="1.0" encoding="utf-8"?>
<!-- Generator: Adobe Illustrator 22.1.0, SVG Export Plug-In . SVG Version: 6.00 Build 0)  -->
<svg version="1.1" id="Layer_1" xmlns="http://www.w3.org/2000/svg" xmlns:xlink="http://www.w3.org/1999/xlink" x="0px" y="0px"
	 viewBox="0 0 800 800" style="enable-background:new 0 0 800 800;" xml:space="preserve">
<style type="text/css">
	.st0{fill:#FFFFFF;}
</style>
<g>
	<path class="st0" d="M709.4,401.9l81.6-80.3L567.2,97.7l-81.6,80.4l8.3,8.3l-25.7,25.7H402l-41.8,41.8h-59.3l-13.7-13.7l27.3-27.2
		l-81.6-80.4L9,356.4l81.6,80.3l28.5-28.5l40.7,40.8l-18.2,18.2c-3.6,3.6-5.5,8.5-5.5,14.3c0,10.1,5.7,21.8,15.3,31.5
		c9.9,9.9,21.6,15.3,31.5,15.3c5.6,0,10.6-1.8,14.3-5.4l18.2-18.2l1.5,1.5L190.1,533c-3.6,3.6-5.5,8.5-5.5,14.3
		c0,10.2,5.7,21.9,15.3,31.5s21.4,15.3,31.5,15.3h0.1c5.8,0,10.7-1.9,14.2-5.5l26.8-26.8l1.6,1.6L247.4,590
		c-3.5,3.5-5.4,8.5-5.4,14.3c0,10.2,5.7,21.9,15.3,31.4c9.9,9.9,21.6,15.3,31.5,15.3c5.6,0,10.6-1.8,14.3-5.4l26.8-26.8l1.7,1.7
		L311,641.1c-3.6,3.6-5.5,8.5-5.5,14.3c0,10.1,5.7,21.8,15.3,31.5c9.9,9.9,21.6,15.3,31.5,15.3c5.6,0,10.6-1.8,14.3-5.4l20.7-20.7
		l16.2,16.2c5,5,11.8,7.4,19.1,7.4c10.2,0,21.4-4.7,30.3-13.6c8.1-8.1,13-18.2,13.6-28.2c4.1,2.4,8.9,3.7,14.2,3.7c0,0,0,0,0.1,0
		c10.6,0,21.6-5,30.2-13.6c8.7-8.7,13.7-19.8,13.7-30.4c0-1.6-0.2-3.1-0.4-4.6c1.5,0.2,3,0.4,4.5,0.4c10.2,0,21.4-4.7,30.3-13.6
		c8.6-8.6,13.6-19.7,13.6-30.3c0-2.2-0.3-4.2-0.7-6.2c2.7,0.6,5.5,0.9,8.3,0.9c10.1,0,20.1-3.8,27.8-11.5
		c7.5-7.5,11.6-17.3,11.6-27.8s-4.1-20.3-11.6-27.8l-15.4-15.5l98.4-98.4L709.4,401.9z M567.1,112.8l208.7,208.8l-66.4,65.3
		L500.7,178.2L567.1,112.8z M90.6,421.7l-66.4-65.3l208.7-208.8l66.4,65.4L90.6,421.7z M189.8,515.2c-4.9,4.9-18.7,2.1-30.7-9.8
		c-7.5-7.6-12.2-16.8-12.2-24c0-2,0.4-4.9,2.3-6.8l38.4-38.4c3.3-3.3,8-5.1,13.3-5.1c0.9,0,1.9,0.1,2.9,0.2
		c6.9,0.8,13.8,4.3,19.4,9.9c11.2,11.2,13.4,27.2,5,35.6L189.8,515.2z M238.2,580.9c-1.5,1.5-3.8,2.3-6.7,2.3c0,0,0,0-0.1,0
		c-7.2,0-16.4-4.7-23.9-12.2s-12.2-16.7-12.2-23.9c0-2,0.4-4.8,2.3-6.7l38.5-38.5c3.4-3.4,8.1-5.1,13.2-5.1
		c7.4,0,15.7,3.5,22.3,10.1c6.4,6.4,10.1,14.5,10.1,22.2c0,5.4-1.8,10-5.1,13.3L238.2,580.9z M295.5,638.1c-5,4.9-18.8,2.1-30.7-9.9
		c-7.5-7.4-12.1-16.6-12.1-23.9c0-3,0.8-5.3,2.3-6.8l38.5-38.4c3.3-3.3,8-5.1,13.3-5.1c0.9,0,1.9,0.1,2.9,0.2
		c7,0.8,13.8,4.3,19.4,9.8c11.1,11.2,13.3,27.2,4.9,35.6L295.5,638.1z M358.9,689.3c-4.9,4.9-18.7,2.1-30.7-9.8
		c-7.5-7.6-12.2-16.8-12.2-24c0-2,0.4-4.9,2.3-6.8l38.5-38.4c3.3-3.3,7.9-5.1,13.2-5.1l0,0c7.8,0,15.9,3.7,22.2,10
		c6.4,6.4,10.1,14.6,10.1,22.4c0,5.3-1.8,9.9-5.1,13.2L358.9,689.3z M608.8,525c0,7.6-3,14.8-8.5,20.2c-11.2,11.2-29.3,11.2-40.5,0
		l-67.6-67.6l-7.5,7.5l72.7,72.7c3.6,3.6,4.4,8.3,4.4,11.6c0,7.7-3.9,16.2-10.5,22.7c-11,11-26.7,13.8-34.4,6.2l0,0l-72.5-72.5
		l-7.5,7.5l72.5,72.5c3.6,3.6,4.4,8.3,4.4,11.6c0,7.7-3.9,16.2-10.5,22.8s-15.1,10.5-22.7,10.5l0,0c-3.3,0-8-0.8-11.6-4.4
		l-72.5-72.5l-10-9.9l-7.5,7.6l72.5,72.5c3.6,3.6,4.4,8.3,4.4,11.6c0,7.7-3.9,16.2-10.5,22.7c-11,11-26.7,13.8-34.4,6.2l-16.1-16.1
		l10.3-10.3c5.3-5.3,8.2-12.6,8.2-20.7c0-10.6-4.8-21.5-13.2-29.9c-8.4-8.4-19.2-13.2-29.8-13.2c0,0,0,0-0.1,0
		c-8.1,0-15.5,2.9-20.8,8.2L339.1,613l-1.7-1.7l4.1-4.1c12.6-12.6,10.4-35.3-4.9-50.7c-7.3-7.3-16.4-11.8-25.7-12.9
		c-9.8-1.1-18.7,1.7-24.9,8l-4.1,4.1l-1.6-1.6l4.1-4.1c5.3-5.3,8.2-12.7,8.2-20.9c0-10.6-4.8-21.4-13.2-29.8
		c-15.3-15.3-38-17.6-50.6-5l-4.2,4.2l-1.5-1.5l12.7-12.7c12.6-12.6,10.3-35.3-5-50.7c-15.3-15.3-38.1-17.5-50.7-4.9l-12.7,12.7
		l-40.7-40.8l152.9-152.9l16.9,16.9h53l-94.6,94.6c-5.4,5.4-4.6,14.9,1.7,21.3l14.8,14.7c6.6,6.6,14.9,10.9,23.4,11.9
		c9,1.1,17-1.4,22.7-7.1l56-56c12.5,9.9,52.8,38.4,96.3,30.3l111.3,111.3l0,0l19.2,19.2C605.8,510.2,608.8,517.4,608.8,525z
		 M683.3,375.8l-98.4,98.4L473.3,362.5l-2.9,0.6c-47.1,10.5-93.2-30.1-93.7-30.5l-3.8-3.4l-63,63c-3.3,3.3-8.3,4.8-13.9,4.1
		c-6.1-0.8-12.2-3.9-17.2-8.9L264,372.7c-2.4-2.4-2.6-5.3-1.7-6.2l144-143.9h66.2l28.8-28.8l126.6,126.6L683.3,375.8z"/>
	<path class="st0" d="M729.5,320.8c0-13.3-10.8-24.1-24.1-24.1s-24.1,10.8-24.1,24.1c0,5.4,1.8,10.6,4.9,14.4c1.3,1.8,3,3.5,4.5,4.6
		c4.1,3.3,9.3,5.1,14.7,5.1C718.7,344.9,729.5,334.1,729.5,320.8z M705.4,334.3c-3,0-5.8-0.9-8.3-2.9c-0.8-0.6-1.6-1.4-2.4-2.5
		c-1.8-2.2-2.7-5-2.7-8c0-7.4,6-13.4,13.4-13.4s13.4,6,13.4,13.4C718.9,328.2,712.8,334.3,705.4,334.3z"/>
	<path class="st0" d="M94.6,331.5c-13.3,0-24.1,10.8-24.1,24.1c0,13.3,10.8,24.1,24.1,24.1c5.4,0,10.6-1.8,14.4-4.9
		c1.9-1.3,3.5-3,4.6-4.5c3.3-4.1,5.1-9.3,5.1-14.7C118.7,342.3,107.9,331.5,94.6,331.5z M105.1,363.9c-0.6,0.8-1.4,1.6-2.5,2.4
		c-2.2,1.8-5,2.7-8,2.7c-7.4,0-13.4-6-13.4-13.4s6-13.4,13.4-13.4s13.4,6,13.4,13.4C108,358.7,107.1,361.4,105.1,363.9z"/>
</g>
</svg>
