<svg id="Layer_1" data-name="Layer 1" xmlns="http://www.w3.org/2000/svg" viewBox="0 0 358.04 68.11">
  <defs>
    <style>
      .cls-1 {
        fill: #70716f;
      }
    </style>
  </defs>
  <title>logo-alen</title>
  <g>
    <g>
      <path class="cls-1" d="M74.49,50.3H69.11V61.7H18.53V50.27H13.06V63.61c0,3.59,2.74,3.59,2.74,3.59h56c2.92,0,2.69-3.46,2.69-3.46Z"/>
      <path class="cls-1" d="M77.85,17.92a2.29,2.29,0,0,1,.48-.7,2.35,2.35,0,0,1,.72-.48,2.54,2.54,0,0,1,.84-.16,2.62,2.62,0,0,1,.85.16,2.7,2.7,0,0,1,.73.48,2.49,2.49,0,0,1,.47.7,2.15,2.15,0,0,1,.17.87,2.08,2.08,0,0,1-.3,1.1,2.11,2.11,0,0,1-.81.82A2.25,2.25,0,0,1,79.9,21a2.3,2.3,0,0,1-1.11-.31,2.3,2.3,0,0,1-1.11-1.92,2.23,2.23,0,0,1,.17-.87m.67,3.26a2.8,2.8,0,0,0,2.75,0,2.92,2.92,0,0,0,1-1,2.69,2.69,0,0,0,.36-1.37,2.72,2.72,0,0,0-.21-1.08,2.64,2.64,0,0,0-.59-.87,2.82,2.82,0,0,0-.88-.6A2.92,2.92,0,0,0,79.9,16a2.87,2.87,0,0,0-1,.21,2.8,2.8,0,0,0-.9.6,2.67,2.67,0,0,0-.59.88,2.76,2.76,0,0,0,.16,2.44,2.66,2.66,0,0,0,1,1"/>
      <path class="cls-1" d="M79.38,17.83h.34a.73.73,0,0,1,.4.1.26.26,0,0,1,.15.26.29.29,0,0,1-.15.29.9.9,0,0,1-.43.08h-.31Zm0,1.26a.46.46,0,0,1,.26.06.83.83,0,0,1,.28.34,6.05,6.05,0,0,1,.4.77h.87l-.26-.5a5.79,5.79,0,0,0-.34-.52.94.94,0,0,0-.36-.27,1.33,1.33,0,0,0,.54-.24.67.67,0,0,0,.26-.58.72.72,0,0,0-.3-.64,1.29,1.29,0,0,0-.76-.19H78.65v2.94h.72Z"/>
      <path class="cls-1" d="M86.22,29.33,74.56,21.78v-14a2.74,2.74,0,0,0-.78-1.94A2.79,2.79,0,0,0,71.86,5H60.67a2.75,2.75,0,0,0-2,.74,2.78,2.78,0,0,0-.81,2v2.67L45.27.68a2.85,2.85,0,0,0-3.2,0L1.2,27.91a2.76,2.76,0,0,0,3.11,4.55L43.67,6.24,59.5,18.12a2.66,2.66,0,0,0,3.91-2.35V10.41h5.67v11c0,.73.11,3.46,2.11,4.76l11.89,7.73a5.69,5.69,0,0,0,1.57.49,2.71,2.71,0,0,0,2.26-1.2,2.76,2.76,0,0,0-.71-3.83"/>
      <path class="cls-1" d="M74.49,47V34.83a6.57,6.57,0,0,0-.37-2.43,4.83,4.83,0,0,0-4.62-2.58,8,8,0,0,0-3.32.74,9.76,9.76,0,0,0-1.47.83,4.38,4.38,0,0,0-.64-1.49l-.18-.28-4.84,1.27.17.43a10.37,10.37,0,0,1,.59,3.61V47h5.45V35.4A5,5,0,0,1,68,34.19c.56,0,.72.11.86.3a3.32,3.32,0,0,1,.25,1.63V47Z"/>
      <path class="cls-1" d="M39,24.8,39,24.43l-5.2,1.08.05.34A25.44,25.44,0,0,1,34,29.66v11.5c0,2.19.05,2.79.42,3.65.59,1.5,2.28,2.35,4.24,2.35a8.34,8.34,0,0,0,2.77-.45l.31-.1-.92-4.22-.39.09-.21,0h-.18a.74.74,0,0,1-.58-.24c-.18-.3-.23-.39-.23-3.1V28.09A12.3,12.3,0,0,0,39,24.8"/>
      <polygon class="cls-1" points="56.81 29.82 57.53 25.6 43.84 25.6 43.84 46.96 57.74 46.96 57.74 42.56 49.27 42.56 49.27 37.94 55.62 37.94 55.62 33.71 49.21 33.71 49.21 29.82 56.81 29.82"/>
      <path class="cls-1" d="M23.17,31.16l1.92,7H21.16ZM20,42.76h6.05l1.57,4.09h5.53L25.94,25.68H20.6l-.07.23L13,46.86h5.42Z"/>
      <rect class="cls-1" x="115.98" y="0.19" width="2.71" height="67.27"/>
    </g>
    <g>
      <path class="cls-1" d="M153.57.21h6.19c4.31,0,6.25,1.63,6.25,5.12s-2,5-6.23,5h-2.93v4.29h-3.28ZM156.85,3V7.82h2.79c2.06,0,3-.72,3-2.37s-.85-2.41-3-2.41Z"/>
      <path class="cls-1" d="M178.08,0a7.71,7.71,0,0,1,6.66,3.69,7.17,7.17,0,0,1,1,3.73,7.33,7.33,0,0,1-3.84,6.44,7.78,7.78,0,0,1-3.86,1,7.71,7.71,0,0,1-6.66-3.69,7.17,7.17,0,0,1-1-3.73A7.33,7.33,0,0,1,174.22,1,7.79,7.79,0,0,1,178.08,0Zm-4.29,7.43a4.25,4.25,0,0,0,4.29,4.33,4,4,0,0,0,3.05-1.26,4.28,4.28,0,0,0,1.22-3.07,4.28,4.28,0,0,0-1.22-3.07,4,4,0,0,0-3.05-1.26A4.25,4.25,0,0,0,173.78,7.43Z"/>
      <path class="cls-1" d="M190.8.21h6.4c4.56,0,6.42,1.44,6.42,4.89,0,2.39-.93,3.8-3,4.44L204,14.65h-3.8L197.19,10l-.78,0h-2.33v4.66H190.8Zm3.28,3V7.43h3.28c2.06,0,2.85-.62,2.85-2.12s-.78-2.12-2.85-2.12Z"/>
      <path class="cls-1" d="M228.67.21V8.07c0,4.62-2.56,6.79-6.54,6.79s-6.54-2.27-6.54-6.79V.21h3.28V8.07c0,2.62,1.3,3.78,3.26,3.78s3.26-1.24,3.26-3.78V.21Z"/>
      <path class="cls-1" d="M247.27,14.65h-3.42l-6.73-9.08v9.08h-3.24V.21h3.42l6.75,9.08V.21h3.22Z"/>
      <path class="cls-1" d="M277.13,14.65H273.9V4.58L269,12.85h-1.13l-4.93-8.27V14.65H259.7V.21H264l4.39,7.32L272.82.21h4.31Z"/>
      <path class="cls-1" d="M295.7.21V8.07c0,4.62-2.56,6.79-6.54,6.79s-6.54-2.27-6.54-6.79V.21h3.28V8.07c0,2.62,1.3,3.78,3.26,3.78s3.26-1.24,3.26-3.78V.21Z"/>
      <path class="cls-1" d="M314.3,14.65h-3.42l-6.73-9.08v9.08h-3.24V.21h3.42l6.75,9.08V.21h3.22Z"/>
      <path class="cls-1" d="M319.61.21h6a7.4,7.4,0,0,1,7.69,7.24c.08,4-3.53,7.28-7.69,7.2h-6Zm3.28,2.93V11.7h2.62a4.48,4.48,0,0,0,3.16-1.22A4,4,0,0,0,330,7.43a4,4,0,0,0-1.3-3.05,4.41,4.41,0,0,0-3.16-1.24Z"/>
      <path class="cls-1" d="M345.58,0a7.72,7.72,0,0,1,6.66,3.69,7.17,7.17,0,0,1,1,3.73,7.33,7.33,0,0,1-3.84,6.44,7.91,7.91,0,0,1-10.52-2.7,7.17,7.17,0,0,1-1-3.73A7.33,7.33,0,0,1,341.72,1,7.78,7.78,0,0,1,345.58,0Zm-4.29,7.43a4.25,4.25,0,0,0,4.29,4.33,4,4,0,0,0,3.05-1.26,4.29,4.29,0,0,0,1.22-3.07,4.29,4.29,0,0,0-1.22-3.07,4,4,0,0,0-3.05-1.26A4.25,4.25,0,0,0,341.29,7.43Z"/>
    </g>
    <g>
      <path class="cls-1" d="M170.9,41.08h-3.24V31l-4.91,8.27h-1.13L156.69,31V41.08h-3.22V26.64h4.31L162.18,34l4.41-7.32h4.31Z"/>
      <path class="cls-1" d="M191.38,41.08h-3.92l-1.11-2.85h-6l-1.11,2.85h-3.92l5.88-14.44h4.31Zm-10.21-5.47h4.29l-2.15-5.32Zm3.34-10.09h-2.64L184.28,22h3.2Z"/>
      <path class="cls-1" d="M207.2,28l-1.38,2.54a11.46,11.46,0,0,0-5-1.36c-1.13,0-1.92.47-1.92,1.38a.85.85,0,0,0,.52.76,13.24,13.24,0,0,0,2.29.74l1.42.41a12.12,12.12,0,0,1,2.35.87,4.35,4.35,0,0,1,1.55,1.3,4,4,0,0,1,.54,2c0,3-2.31,4.58-5.94,4.58a12.2,12.2,0,0,1-6.91-2l1.49-2.46a11.23,11.23,0,0,0,5.8,1.61c1.11,0,2.1-.41,2.1-1.36a1.09,1.09,0,0,0-.54-1.05,10.92,10.92,0,0,0-2.43-.78l-.35-.08a17.41,17.41,0,0,1-3.32-1.09,3.15,3.15,0,0,1-2.1-3.14c0-3.09,2.58-4.54,5.82-4.54A11.46,11.46,0,0,1,207.2,28Z"/>
      <path class="cls-1" d="M222.68,38.13H230v3H219.4V26.64h3.28Z"/>
      <path class="cls-1" d="M237.68,41.08H234.4V26.64h3.28Z"/>
      <path class="cls-1" d="M260.49,41.08h-3.24V31l-4.91,8.27h-1.13L246.28,31V41.08h-3.22V26.64h4.31L251.76,34l4.42-7.32h4.31Z"/>
      <path class="cls-1" d="M266,26.64h6.19c4.31,0,6.25,1.63,6.25,5.12s-2,5-6.23,5h-2.93v4.29H266Zm3.28,2.83v4.79H272c2.06,0,3-.72,3-2.37s-.85-2.41-3-2.41Z"/>
      <path class="cls-1" d="M286.51,41.08h-3.28V26.64h3.28Z"/>
      <path class="cls-1" d="M299.24,26.43a7.72,7.72,0,0,1,6.66,3.69,7.17,7.17,0,0,1,1,3.73,7.33,7.33,0,0,1-3.84,6.44,7.91,7.91,0,0,1-10.52-2.7,7.17,7.17,0,0,1-1-3.73,7.33,7.33,0,0,1,3.84-6.44A7.78,7.78,0,0,1,299.24,26.43Zm-4.29,7.43a4.25,4.25,0,0,0,4.29,4.33,4,4,0,0,0,3.05-1.26,4.49,4.49,0,0,0,0-6.15,4,4,0,0,0-3.05-1.26A4.25,4.25,0,0,0,294.95,33.86Z"/>
    </g>
    <g>
      <path class="cls-1" d="M161.6,62.85V67.9h-3.28v-5l-5.86-9.45h3.92L160,59.38l3.61-5.92h3.88Z"/>
      <path class="cls-1" d="M190.72,54.84l-1.38,2.54a11.46,11.46,0,0,0-5-1.36c-1.13,0-1.92.47-1.92,1.38a.85.85,0,0,0,.52.76,13.23,13.23,0,0,0,2.29.74l1.42.41a12.15,12.15,0,0,1,2.35.87,4.35,4.35,0,0,1,1.55,1.3,4,4,0,0,1,.54,2c0,3-2.31,4.58-5.94,4.58a12.2,12.2,0,0,1-6.91-2l1.49-2.46a11.24,11.24,0,0,0,5.8,1.61c1.11,0,2.1-.41,2.1-1.36a1.08,1.08,0,0,0-.54-1.05,10.91,10.91,0,0,0-2.43-.78l-.35-.08a17.41,17.41,0,0,1-3.32-1.09,3.15,3.15,0,0,1-2.1-3.14c0-3.09,2.58-4.54,5.82-4.54A11.47,11.47,0,0,1,190.72,54.84Z"/>
      <path class="cls-1" d="M208.79,53.46v7.86c0,4.62-2.56,6.79-6.54,6.79s-6.54-2.27-6.54-6.79V53.46H199v7.86c0,2.62,1.3,3.78,3.26,3.78s3.26-1.24,3.26-3.78V53.46Z"/>
      <path class="cls-1" d="M225.8,54.84l-1.38,2.54a11.46,11.46,0,0,0-5-1.36c-1.13,0-1.92.47-1.92,1.38a.85.85,0,0,0,.52.76,13.23,13.23,0,0,0,2.29.74l1.42.41a12.15,12.15,0,0,1,2.35.87,4.35,4.35,0,0,1,1.55,1.3,4,4,0,0,1,.54,2c0,3-2.31,4.58-5.94,4.58a12.2,12.2,0,0,1-6.91-2l1.49-2.46a11.23,11.23,0,0,0,5.8,1.61c1.11,0,2.1-.41,2.1-1.36a1.08,1.08,0,0,0-.54-1.05,10.91,10.91,0,0,0-2.43-.78l-.35-.08A17.41,17.41,0,0,1,216,60.93a3.15,3.15,0,0,1-2.1-3.14c0-3.09,2.58-4.54,5.82-4.54A11.47,11.47,0,0,1,225.8,54.84Z"/>
      <path class="cls-1" d="M241.76,56.27h-4.39V67.9H234V56.27h-4.37V53.46h12.09Z"/>
      <path class="cls-1" d="M257.62,56.41h-8.25v2.78H257V62h-7.67v3h8.4v3H246.09V53.46h11.53Z"/>
      <path class="cls-1" d="M275.67,67.9h-3.42l-6.73-9.08V67.9h-3.24V53.46h3.42l6.75,9.08V53.46h3.22Z"/>
      <path class="cls-1" d="M292,56.27h-4.39V67.9h-3.32V56.27h-4.37V53.46H292Z"/>
      <path class="cls-1" d="M309.53,67.9h-3.92l-1.11-2.85h-6l-1.11,2.85h-3.92l5.88-14.44h4.31Zm-10.21-5.47h4.29l-2.15-5.32Z"/>
      <path class="cls-1" d="M313.9,53.46h7.47c3,0,4.72,1.26,4.72,3.65a3.16,3.16,0,0,1-2.25,3.22A3.58,3.58,0,0,1,326.73,64c0,2-1.2,3.92-5,3.92H313.9Zm3.28,6h3.24c1.42,0,2.25-.58,2.25-1.65s-.78-1.67-2.25-1.67h-3.24Zm0,5.76H321c1.65,0,2.35-.76,2.35-1.77s-.7-1.79-2.35-1.79h-3.78Z"/>
      <path class="cls-1" d="M334.65,65H342v3H331.37V53.46h3.28Z"/>
      <path class="cls-1" d="M357.89,56.41h-8.25v2.78h7.67V62h-7.67v3H358v3H346.36V53.46h11.53Z"/>
    </g>
  </g>
</svg>
