<?xml version="1.0" encoding="utf-8"?>
<!-- Generator: Adobe Illustrator 21.0.2, SVG Export Plug-In . SVG Version: 6.00 Build 0)  -->
<svg version="1.1" id="Layer_1" xmlns="http://www.w3.org/2000/svg" xmlns:xlink="http://www.w3.org/1999/xlink" x="0px" y="0px"
	 viewBox="0 0 358 68.1" style="enable-background:new 0 0 358 68.1;" xml:space="preserve">
<style type="text/css">
	.st0{fill:#3DAF2C;}
</style>
<title>logo-alen</title>
<g>
	<g>
		<path class="st0" d="M74.5,50.3h-5.4v11.4H18.5V50.3h-5.5v13.3c0,3.6,2.7,3.6,2.7,3.6h56c2.9,0,2.7-3.5,2.7-3.5L74.5,50.3z"/>
		<path class="st0" d="M77.8,17.9c0.1-0.3,0.3-0.5,0.5-0.7c0.2-0.2,0.5-0.4,0.7-0.5c0.3-0.1,0.6-0.2,0.8-0.2c0.3,0,0.6,0.1,0.8,0.2
			c0.3,0.1,0.5,0.3,0.7,0.5c0.2,0.2,0.4,0.4,0.5,0.7c0.1,0.3,0.2,0.6,0.2,0.9c0,0.4-0.1,0.8-0.3,1.1c-0.2,0.3-0.5,0.6-0.8,0.8
			c-0.3,0.2-0.7,0.3-1.1,0.3c-0.4,0-0.8-0.1-1.1-0.3c-0.7-0.4-1.1-1.1-1.1-1.9C77.7,18.5,77.7,18.2,77.8,17.9 M78.5,21.2
			c0.9,0.5,1.9,0.5,2.8,0c0.4-0.2,0.8-0.6,1-1c0.2-0.4,0.4-0.9,0.4-1.4c0-0.4-0.1-0.7-0.2-1.1c-0.1-0.3-0.3-0.6-0.6-0.9
			c-0.3-0.3-0.6-0.5-0.9-0.6c-0.3-0.1-0.7-0.2-1.1-0.2c-0.3,0-0.7,0.1-1,0.2c-0.3,0.1-0.6,0.3-0.9,0.6c-0.3,0.3-0.5,0.6-0.6,0.9
			c-0.3,0.8-0.3,1.7,0.2,2.4C77.8,20.5,78.2,20.9,78.5,21.2"/>
		<path class="st0" d="M79.4,17.8h0.3c0.1,0,0.3,0,0.4,0.1c0.1,0,0.2,0.2,0.2,0.3c0,0.1,0,0.2-0.2,0.3c-0.1,0.1-0.3,0.1-0.4,0.1
			h-0.3V17.8z M79.4,19.1c0.1,0,0.2,0,0.3,0.1c0.1,0.1,0.2,0.2,0.3,0.3c0.2,0.2,0.3,0.5,0.4,0.8h0.9l-0.3-0.5
			c-0.1-0.2-0.2-0.4-0.3-0.5c-0.1-0.1-0.2-0.2-0.4-0.3c0.2,0,0.4-0.1,0.5-0.2c0.2-0.1,0.3-0.4,0.3-0.6c0-0.3-0.1-0.5-0.3-0.6
			c-0.2-0.1-0.5-0.2-0.8-0.2h-1.3v2.9h0.7L79.4,19.1z"/>
		<path class="st0" d="M86.2,29.3l-11.7-7.5v-14c0-0.7-0.3-1.4-0.8-1.9C73.3,5.3,72.6,5,71.9,5H60.7c-0.7,0-1.5,0.2-2,0.7
			c-0.5,0.5-0.8,1.3-0.8,2v2.7L45.3,0.7c-1-0.7-2.2-0.7-3.2,0L1.2,27.9c-1.2,0.9-1.4,2.7-0.5,3.9c0.9,1.1,2.4,1.4,3.6,0.7L43.7,6.2
			l15.8,11.9c1.3,0.7,2.9,0.2,3.6-1.1c0.2-0.4,0.3-0.8,0.3-1.3v-5.4h5.7v11c0,0.7,0.1,3.5,2.1,4.8l11.9,7.7c0.5,0.2,1,0.4,1.6,0.5
			c0.9,0,1.8-0.4,2.3-1.2C87.8,31.9,87.5,30.2,86.2,29.3"/>
		<path class="st0" d="M74.5,47V34.8c0-0.8-0.1-1.7-0.4-2.4c-0.9-1.7-2.7-2.7-4.6-2.6c-1.1,0-2.3,0.3-3.3,0.7
			c-0.5,0.2-1,0.5-1.5,0.8c-0.1-0.5-0.3-1-0.6-1.5l-0.2-0.3L59,30.9l0.2,0.4c0.4,1.2,0.6,2.4,0.6,3.6V47h5.4V35.4
			c0.8-0.7,1.7-1.1,2.7-1.2c0.6,0,0.7,0.1,0.9,0.3c0.2,0.5,0.3,1.1,0.2,1.6V47H74.5z"/>
		<path class="st0" d="M39,24.8v-0.4l-5.2,1.1l0,0.3c0.1,1.3,0.2,2.5,0.2,3.8v11.5c0,2.2,0,2.8,0.4,3.7c0.6,1.5,2.3,2.3,4.2,2.3
			c0.9,0,1.9-0.1,2.8-0.5l0.3-0.1l-0.9-4.2l-0.4,0.1h-0.2H40c-0.2,0-0.4-0.1-0.6-0.2c-0.2-0.3-0.2-0.4-0.2-3.1v-11
			C39.3,27,39.2,25.9,39,24.8"/>
		<polygon class="st0" points="56.8,29.8 57.5,25.6 43.8,25.6 43.8,47 57.7,47 57.7,42.6 49.3,42.6 49.3,37.9 55.6,37.9 55.6,33.7 
			49.2,33.7 49.2,29.8 		"/>
		<path class="st0" d="M23.2,31.2l1.9,7h-3.9L23.2,31.2z M20,42.8h6l1.6,4.1h5.5l-7.2-21.2h-5.3l-0.1,0.2l-7.5,21h5.4L20,42.8z"/>
		<rect x="116" y="0.2" class="st0" width="2.7" height="67.3"/>
	</g>
	<g>
		<path class="st0" d="M153.6,0.2h6.2c4.3,0,6.2,1.6,6.2,5.1s-2,5-6.2,5h-2.9v4.3h-3.3L153.6,0.2z M156.9,3v4.8h2.8
			c2.1,0,3-0.7,3-2.4s-0.9-2.4-3-2.4L156.9,3z"/>
		<path class="st0" d="M178.1,0c2.7,0,5.2,1.4,6.7,3.7c0.7,1.1,1,2.4,1,3.7c0,2.7-1.5,5.2-3.8,6.4c-1.2,0.7-2.5,1-3.9,1
			c-2.7,0-5.2-1.4-6.7-3.7c-0.7-1.1-1-2.4-1-3.7c0-2.7,1.5-5.2,3.8-6.4C175.4,0.3,176.7,0,178.1,0z M173.8,7.4
			c0,2.3,1.8,4.3,4.2,4.3c0,0,0.1,0,0.1,0c1.2,0,2.3-0.4,3.1-1.3c0.8-0.8,1.2-1.9,1.2-3.1c0-1.1-0.4-2.3-1.2-3.1
			c-0.8-0.8-1.9-1.3-3.1-1.3c-2.3,0-4.3,1.9-4.3,4.2C173.8,7.3,173.8,7.4,173.8,7.4L173.8,7.4z"/>
		<path class="st0" d="M190.8,0.2h6.4c4.6,0,6.4,1.4,6.4,4.9c0,2.4-0.9,3.8-3,4.4l3.4,5.1h-3.8l-3-4.6h-0.8h-2.3v4.7h-3.3V0.2z
			 M194.1,3.2v4.2h3.3c2.1,0,2.9-0.6,2.9-2.1s-0.8-2.1-2.9-2.1L194.1,3.2z"/>
		<path class="st0" d="M228.7,0.2v7.9c0,4.6-2.6,6.8-6.5,6.8s-6.5-2.3-6.5-6.8V0.2h3.3v7.9c0,2.6,1.3,3.8,3.3,3.8s3.3-1.2,3.3-3.8
			V0.2H228.7z"/>
		<path class="st0" d="M247.3,14.6h-3.4l-6.7-9.1v9.1h-3.2V0.2h3.4l6.8,9.1V0.2h3.2V14.6z"/>
		<path class="st0" d="M277.1,14.6h-3.2V4.6l-4.9,8.3h-1.1l-4.9-8.3v10.1h-3.2V0.2h4.3l4.4,7.3l4.4-7.3h4.3V14.6z"/>
		<path class="st0" d="M295.7,0.2v7.9c0,4.6-2.6,6.8-6.5,6.8s-6.5-2.3-6.5-6.8V0.2h3.3v7.9c0,2.6,1.3,3.8,3.3,3.8s3.3-1.2,3.3-3.8
			V0.2H295.7z"/>
		<path class="st0" d="M314.3,14.6h-3.4l-6.7-9.1v9.1h-3.2V0.2h3.4l6.8,9.1V0.2h3.2V14.6z"/>
		<path class="st0" d="M319.6,0.2h6c4.1-0.2,7.5,3,7.7,7.1c0,0,0,0.1,0,0.1c0.1,4-3.5,7.3-7.7,7.2h-6V0.2z M322.9,3.1v8.6h2.6
			c1.2,0,2.3-0.4,3.2-1.2c0.9-0.8,1.4-1.9,1.3-3c0-1.2-0.4-2.3-1.3-3c-0.8-0.8-2-1.3-3.2-1.2H322.9z"/>
		<path class="st0" d="M345.6,0c2.7,0,5.2,1.4,6.7,3.7c0.7,1.1,1,2.4,1,3.7c0,2.7-1.5,5.2-3.8,6.4c-3.7,2-8.3,0.8-10.5-2.7
			c-0.7-1.1-1-2.4-1-3.7c0-2.7,1.5-5.2,3.8-6.4C342.9,0.3,344.2,0,345.6,0z M341.3,7.4c0,2.3,1.8,4.3,4.2,4.3c0,0,0.1,0,0.1,0
			c1.2,0,2.3-0.4,3-1.3c0.8-0.8,1.2-1.9,1.2-3.1c0-1.1-0.4-2.3-1.2-3.1c-0.8-0.8-1.9-1.3-3-1.3c-2.3,0-4.3,1.9-4.3,4.2
			C341.3,7.3,341.3,7.4,341.3,7.4L341.3,7.4z"/>
	</g>
	<g>
		<path class="st0" d="M170.9,41.1h-3.2V31l-4.9,8.3h-1.1l-4.9-8.3v10.1h-3.2V26.6h4.3l4.4,7.4l4.4-7.3h4.3V41.1z"/>
		<path class="st0" d="M191.4,41.1h-3.9l-1.1-2.8h-6l-1.1,2.8h-3.9l5.9-14.4h4.3L191.4,41.1z M181.2,35.6h4.3l-2.1-5.3L181.2,35.6z
			 M184.5,25.5h-2.6l2.4-3.5h3.2L184.5,25.5z"/>
		<path class="st0" d="M207.2,28l-1.4,2.5c-1.5-0.8-3.3-1.3-5-1.4c-1.1,0-1.9,0.5-1.9,1.4c0,0.3,0.2,0.6,0.5,0.8
			c0.7,0.3,1.5,0.6,2.3,0.7l1.4,0.4c0.8,0.2,1.6,0.5,2.4,0.9c0.6,0.3,1.1,0.8,1.6,1.3c0.4,0.6,0.5,1.3,0.5,2c0,3-2.3,4.6-5.9,4.6
			c-2.5,0-4.9-0.7-6.9-2l1.5-2.5c1.8,1.1,3.8,1.6,5.8,1.6c1.1,0,2.1-0.4,2.1-1.4c0-0.4-0.2-0.8-0.5-1c-0.8-0.4-1.6-0.6-2.4-0.8
			l-0.4-0.1c-1.1-0.3-2.3-0.6-3.3-1.1c-1.3-0.5-2.2-1.7-2.1-3.1c0-3.1,2.6-4.5,5.8-4.5C203.3,26.3,205.4,26.9,207.2,28z"/>
		<path class="st0" d="M222.7,38.1h7.3v3h-10.6V26.6h3.3V38.1z"/>
		<path class="st0" d="M237.7,41.1h-3.3V26.6h3.3V41.1z"/>
		<path class="st0" d="M260.5,41.1h-3.2V31l-4.9,8.3h-1.1l-4.9-8.3v10.1h-3.2V26.6h4.3l4.4,7.4l4.4-7.3h4.3V41.1z"/>
		<path class="st0" d="M266,26.6h6.2c4.3,0,6.2,1.6,6.2,5.1s-2,5-6.2,5h-2.9V41H266V26.6z M269.3,29.5v4.8h2.7c2.1,0,3-0.7,3-2.4
			s-0.9-2.4-3-2.4L269.3,29.5z"/>
		<path class="st0" d="M286.5,41.1h-3.3V26.6h3.3V41.1z"/>
		<path class="st0" d="M299.2,26.4c2.7,0,5.2,1.4,6.7,3.7c0.7,1.1,1,2.4,1,3.7c0,2.7-1.5,5.2-3.8,6.4c-3.7,2-8.3,0.8-10.5-2.7
			c-0.7-1.1-1-2.4-1-3.7c0-2.7,1.5-5.2,3.8-6.4C296.6,26.8,297.9,26.4,299.2,26.4z M294.9,33.9c0,2.3,1.8,4.3,4.2,4.3
			c0,0,0.1,0,0.1,0c1.2,0,2.3-0.4,3-1.3c1.6-1.7,1.6-4.4,0-6.1c-0.8-0.8-1.9-1.3-3-1.3c-2.3,0-4.3,1.9-4.3,4.2
			C294.9,33.8,294.9,33.8,294.9,33.9L294.9,33.9z"/>
	</g>
	<g>
		<path class="st0" d="M161.6,62.8v5.1h-3.3v-5l-5.9-9.5h3.9l3.6,5.9l3.6-5.9h3.9L161.6,62.8z"/>
		<path class="st0" d="M190.7,54.8l-1.4,2.5c-1.5-0.8-3.3-1.3-5-1.4c-1.1,0-1.9,0.5-1.9,1.4c0,0.3,0.2,0.6,0.5,0.8
			c0.7,0.3,1.5,0.6,2.3,0.7l1.4,0.4c0.8,0.2,1.6,0.5,2.4,0.9c0.6,0.3,1.1,0.8,1.6,1.3c0.4,0.6,0.5,1.3,0.5,2c0,3-2.3,4.6-5.9,4.6
			c-2.5,0-4.9-0.7-6.9-2l1.5-2.5c1.8,1.1,3.8,1.6,5.8,1.6c1.1,0,2.1-0.4,2.1-1.4c0-0.4-0.2-0.8-0.5-1c-0.8-0.4-1.6-0.6-2.4-0.8
			l-0.4-0.1c-1.1-0.3-2.3-0.6-3.3-1.1c-1.3-0.5-2.2-1.7-2.1-3.1c0-3.1,2.6-4.5,5.8-4.5C186.8,53.2,188.9,53.7,190.7,54.8z"/>
		<path class="st0" d="M208.8,53.5v7.9c0,4.6-2.6,6.8-6.5,6.8s-6.5-2.3-6.5-6.8v-7.9h3.3v7.9c0,2.6,1.3,3.8,3.3,3.8s3.3-1.2,3.3-3.8
			v-7.9H208.8z"/>
		<path class="st0" d="M225.8,54.8l-1.4,2.5c-1.5-0.8-3.3-1.3-5-1.4c-1.1,0-1.9,0.5-1.9,1.4c0,0.3,0.2,0.6,0.5,0.8
			c0.7,0.3,1.5,0.6,2.3,0.7l1.4,0.4c0.8,0.2,1.6,0.5,2.4,0.9c0.6,0.3,1.1,0.8,1.6,1.3c0.4,0.6,0.5,1.3,0.5,2c0,3-2.3,4.6-5.9,4.6
			c-2.5,0-4.9-0.7-6.9-2l1.5-2.5c1.8,1.1,3.8,1.6,5.8,1.6c1.1,0,2.1-0.4,2.1-1.4c0-0.4-0.2-0.8-0.5-1c-0.8-0.4-1.6-0.6-2.4-0.8
			l-0.4-0.1c-1.2-0.2-2.3-0.6-3.4-1c-1.3-0.5-2.2-1.7-2.1-3.1c0-3.1,2.6-4.5,5.8-4.5C221.9,53.2,224,53.8,225.8,54.8z"/>
		<path class="st0" d="M241.8,56.3h-4.4v11.6H234V56.3h-4.4v-2.8h12.1L241.8,56.3z"/>
		<path class="st0" d="M257.6,56.4h-8.2v2.8h7.6V62h-7.7v3h8.4v3h-11.6V53.5h11.5V56.4z"/>
		<path class="st0" d="M275.7,67.9h-3.4l-6.7-9.1v9.1h-3.2V53.5h3.4l6.8,9.1v-9.1h3.2V67.9z"/>
		<path class="st0" d="M292,56.3h-4.4v11.6h-3.3V56.3h-4.4v-2.8H292V56.3z"/>
		<path class="st0" d="M309.5,67.9h-3.9l-1.1-2.8h-6l-1.1,2.8h-3.9l5.9-14.4h4.3L309.5,67.9z M299.3,62.4h4.3l-2.1-5.3L299.3,62.4z"
			/>
		<path class="st0" d="M313.9,53.5h7.5c3,0,4.7,1.3,4.7,3.7c0.1,1.5-0.8,2.8-2.2,3.2c1.7,0.3,3,1.9,2.9,3.7c0,2-1.2,3.9-5,3.9h-7.8
			V53.5z M317.2,59.5h3.2c1.4,0,2.2-0.6,2.2-1.7s-0.8-1.7-2.2-1.7h-3.2V59.5z M317.2,65.2h3.8c1.6,0,2.4-0.8,2.4-1.8
			s-0.7-1.8-2.4-1.8h-3.8L317.2,65.2z"/>
		<path class="st0" d="M334.6,65h7.4v3h-10.6V53.5h3.3V65z"/>
		<path class="st0" d="M357.9,56.4h-8.2v2.8h7.7V62h-7.7v3h8.4v3h-11.6V53.5h11.5L357.9,56.4z"/>
	</g>
</g>
</svg>
